<?xml version="1.0" encoding="UTF-8" standalone="no"?>
<!-- Created with Inkscape (http://www.inkscape.org/) -->

<svg
   width="140mm"
   height="120mm"
   viewBox="0 0 140 120"
   version="1.1"
   id="SVGRoot"
   sodipodi:docname="desenho_transparente.svg"
   inkscape:version="1.2.1 (9c6d41e410, 2022-07-14)"
   xmlns:inkscape="http://www.inkscape.org/namespaces/inkscape"
   xmlns:sodipodi="http://sodipodi.sourceforge.net/DTD/sodipodi-0.dtd"
   xmlns="http://www.w3.org/2000/svg"
   xmlns:svg="http://www.w3.org/2000/svg">
  <sodipodi:namedview
     id="namedview1975"
     pagecolor="#ffffff"
     bordercolor="#000000"
     borderopacity="0.25"
     inkscape:showpageshadow="2"
     inkscape:pageopacity="0.0"
     inkscape:pagecheckerboard="0"
     inkscape:deskcolor="#d1d1d1"
     inkscape:document-units="mm"
     showgrid="false"
     inkscape:zoom="1.0645786"
     inkscape:cx="297.7704"
     inkscape:cy="229.66834"
     inkscape:window-width="1920"
     inkscape:window-height="1022"
     inkscape:window-x="0"
     inkscape:window-y="32"
     inkscape:window-maximized="1"
     inkscape:current-layer="layer2" />
  <defs
     id="defs1970" />
  <g
     inkscape:groupmode="layer"
     id="layer2"
     inkscape:label="bg">
    <rect
       style="display:none;fill:#ffffff;stroke-width:0.264583"
       id="rect2677"
       width="162.22903"
       height="132.37585"
       x="-9.1097097"
       y="-6.9663601" />
  </g>
  <g
     inkscape:label="Camada 1"
     inkscape:groupmode="layer"
     id="layer1">
    <g
       id="g704"
       transform="translate(-35.511546,-3.4850972)">
      <path
         d="m 142.27159,72.283664 c 1.25518,-3.651955 1.74201,-7.839428 1.1243,-12.768087 -0.34008,-2.65183 -1.15429,-4.894439 -1.58362,-6.405033 -0.46814,-1.648178 -1.38395,-3.698523 -2.44405,-6.07307 -3.64349,-8.160103 -8.5979,-19.256376 -0.99483,-26.298527 0.57221,-0.530225 0.64311,-1.39453 0.14217,-1.989314 L 130.03937,8.684177 c -0.10301,-0.1224139 -0.25647,-0.1933222 -0.4184,-0.1933222 l -24.01923,0.00494 -24.019578,-0.00494 c -0.161572,0 -0.31503,0.070908 -0.418042,0.1933222 l -8.476545,10.065456 c -0.500944,0.594784 -0.429683,1.459089 0.142523,1.989314 7.602714,7.042151 2.648303,18.138424 -0.994834,26.298527 -1.06045,2.374547 -1.975908,4.424892 -2.444397,6.07307 -0.428978,1.510594 -1.243189,3.753203 -1.58362,6.405033 -0.617714,4.928659 -0.13088,9.116132 1.124656,12.768087 h 73.339687"
         style="fill:#43b2e9;fill-opacity:1;fill-rule:nonzero;stroke:none;stroke-width:0.0352778"
         id="path149" />
      <path
         d="m 67.1853,54.735791 c 0.499533,-1.788583 1.462264,-3.981097 2.577395,-6.520392 3.831519,-8.72737 9.079442,-20.679835 0.522111,-27.834521 -0.479072,-0.40005 -0.544689,-1.117248 -0.146403,-1.597731 L 79.285579,7.1668797 c 0.217664,-0.2624667 0.537986,-0.41275 0.878769,-0.41275 l 25.207742,0.00529 25.20703,-0.00529 c 0.34078,0 0.66075,0.1502833 0.87841,0.4123972 l 9.73491,11.6162671 c 0.39793,0.480836 0.33267,1.198387 -0.1464,1.598437 -8.55628,7.153981 -3.30906,19.106092 0.52281,27.834168 1.11443,2.537531 2.07645,4.728986 2.57704,6.520039 1.45698,5.213703 3.74015,18.442871 -6.49464,28.665313 -7.04391,7.034037 -16.67333,9.215967 -21.84717,10.388248 -1.20685,0.272697 -2.24967,0.508706 -2.88784,0.72637 -3.06776,1.048102 -6.20325,5.114572 -6.33589,5.287786 -0.19932,0.261765 -0.50094,0.424745 -0.80328,0.446965 l -0.01,-10e-4 -0.031,0.003 c -0.37571,0.0303 -0.75389,-0.14288 -0.98672,-0.449441 -0.0314,-0.04233 -3.22439,-4.224161 -6.334835,-5.28708 C 97.785599,94.30088 96.744199,94.064519 95.526763,93.788293 90.353982,92.616718 80.724912,90.436199 73.679939,83.400751 63.444797,73.178662 65.728328,59.949141 67.1853,54.735791 Z m 27.921305,40.905291 c 1.156052,0.262467 2.155119,0.488245 2.692753,0.672042 1.945569,0.664281 4.501802,3.411362 5.434542,4.636556 0.5715,0.75389 1.47814,1.20439 2.42535,1.20439 0.0674,0 0.13441,-0.002 0.20214,-0.006 l 0.0512,-0.004 c 0.8636,-0.0681 1.65735,-0.50095 2.18228,-1.19098 0.93381,-1.227316 3.4918,-3.975808 5.43737,-4.639736 0.53693,-0.183797 1.58009,-0.419805 2.69416,-0.671689 5.35976,-1.214261 15.33702,-3.474508 22.77005,-10.897659 10.94387,-10.930467 8.5284,-24.984076 6.98217,-30.51916 -0.53692,-1.919464 -1.524,-4.167717 -2.66805,-6.772981 -3.58952,-8.175978 -8.50548,-19.373851 -1.04352,-25.613432 1.27811,-1.068564 1.4538,-2.982031 0.39158,-4.265789 L 132.92297,5.9557935 c -0.57996,-0.7002639 -1.43439,-1.1017251 -2.34491,-1.1017251 l -25.20597,0.00529 -25.207742,-0.00529 c -0.909814,0 -1.764242,0.4014612 -2.344561,1.1017251 L 68.672611,17.572414 c -1.062566,1.283405 -0.886883,3.196519 0.391231,4.265436 7.463014,6.239581 2.54635,17.43816 -1.04387,25.615196 -1.143352,2.603853 -2.130778,4.852459 -2.667353,6.771923 -1.546577,5.534731 -3.962047,19.58834 6.982179,30.518807 7.433381,7.423856 17.410995,9.683751 22.771807,10.897306"
         style="fill:#1c418a;fill-opacity:1;fill-rule:nonzero;stroke:none;stroke-width:0.0352778"
         id="path151" />
      <path
         d="m 91.909732,18.310778 c -0.09313,0.188383 -0.219075,0.346075 -0.377825,0.471664 -0.15875,0.125941 -0.343605,0.220133 -0.554919,0.282927 -0.210961,0.0628 -0.434623,0.09455 -0.670631,0.09455 h -0.703086 v -3.01872 h 0.836436 c 0.333022,0 0.604308,0.05433 0.813506,0.162983 0.208844,0.108656 0.372533,0.240948 0.490714,0.397228 0.11818,0.156281 0.198261,0.321381 0.240947,0.494948 0.04269,0.173213 0.06421,0.324555 0.06421,0.454025 0,0.251883 -0.04657,0.471664 -0.139347,0.6604 z m 0.557742,-1.51765 c -0.06244,-0.148873 -0.146403,-0.293512 -0.252942,-0.434623 -0.106539,-0.140758 -0.240241,-0.265641 -0.400755,-0.374297 -0.160867,-0.109008 -0.350662,-0.195439 -0.569384,-0.26035 -0.218722,-0.06456 -0.47378,-0.09737 -0.764116,-0.09737 h -1.434748 v 4.047773 h 1.341967 c 0.367947,0 0.69215,-0.05715 0.972961,-0.17145 0.280811,-0.1143 0.516114,-0.265995 0.705909,-0.454731 0.189794,-0.188383 0.333022,-0.403578 0.430036,-0.645936 0.09666,-0.242005 0.144991,-0.492125 0.144991,-0.751769 0,-0.125589 -0.0134,-0.26282 -0.04057,-0.411692 -0.02716,-0.14852 -0.07197,-0.297039 -0.13335,-0.445558"
         style="fill:#1c418a;fill-opacity:1;fill-rule:nonzero;stroke:none;stroke-width:0.0352778"
         id="path153" />
      <path
         d="m 94.233127,17.862044 h 1.951919 v -0.514703 h -1.951919 v -1.206147 h 2.096911 v -0.514703 h -2.654653 v 4.047773 h 2.759428 v -0.51435 h -2.201686 v -1.29787"
         style="fill:#1c418a;fill-opacity:1;fill-rule:nonzero;stroke:none;stroke-width:0.0352778"
         id="path155" />
      <path
         d="m 101.18391,17.61898 c -0.14923,-0.08184 -0.31186,-0.145697 -0.48789,-0.191558 -0.17639,-0.04586 -0.33902,-0.09701 -0.48825,-0.154164 -0.14887,-0.05715 -0.273754,-0.131586 -0.374648,-0.222955 -0.100542,-0.09172 -0.150989,-0.222956 -0.150989,-0.394406 0,-0.06103 0.01235,-0.127706 0.0381,-0.200378 0.02469,-0.07232 0.06844,-0.140053 0.130527,-0.202847 0.06209,-0.0628 0.144287,-0.1143 0.24694,-0.154164 0.10231,-0.03986 0.23143,-0.05997 0.3863,-0.05997 0.16263,0 0.30797,0.03245 0.43568,0.09701 0.1277,0.06491 0.22648,0.150283 0.29598,0.257175 l 0.45332,-0.406048 c -0.15487,-0.186266 -0.33514,-0.310444 -0.54011,-0.371475 -0.20567,-0.06068 -0.42051,-0.09137 -0.64487,-0.09137 -0.24801,0 -0.46003,0.03704 -0.636415,0.111478 -0.176036,0.07408 -0.320322,0.166864 -0.432505,0.277283 -0.112183,0.110772 -0.194733,0.232481 -0.246945,0.365831 -0.05221,0.13335 -0.07832,0.259291 -0.07832,0.377472 0,0.262819 0.05045,0.471664 0.150989,0.625828 0.100541,0.154516 0.225425,0.277283 0.37465,0.368653 0.149225,0.09137 0.311855,0.162983 0.487896,0.214488 0.17639,0.05151 0.33902,0.105128 0.48789,0.160162 0.14923,0.05503 0.27411,0.123825 0.37465,0.205669 0.1009,0.08185 0.15134,0.201083 0.15134,0.357364 0,0.110772 -0.0254,0.207786 -0.0758,0.291394 -0.0501,0.08396 -0.11501,0.154517 -0.19439,0.211667 -0.0794,0.05715 -0.16756,0.100189 -0.26423,0.128764 -0.097,0.02858 -0.19191,0.04269 -0.28469,0.04269 -0.16651,0 -0.328085,-0.03528 -0.485424,-0.105833 -0.156633,-0.0702 -0.285397,-0.18027 -0.385938,-0.328436 l -0.458964,0.388761 c 0.139347,0.1905 0.327025,0.331611 0.563386,0.42298 0.236361,0.09102 0.48613,0.137231 0.74966,0.137231 0.1972,0 0.38311,-0.02858 0.55739,-0.08573 0.17427,-0.0575 0.32526,-0.138995 0.45332,-0.245886 0.1277,-0.106892 0.2293,-0.238125 0.3048,-0.394759 0.0755,-0.15628 0.11324,-0.331258 0.11324,-0.525638 0,-0.244123 -0.0501,-0.435328 -0.15064,-0.574676 -0.10125,-0.138994 -0.22613,-0.249413 -0.375,-0.331611"
         style="fill:#1c418a;fill-opacity:1;fill-rule:nonzero;stroke:none;stroke-width:0.0352778"
         id="path157" />
      <path
         d="m 103.32456,17.862044 h 1.95192 v -0.514703 h -1.95192 v -1.206147 h 2.09727 v -0.514703 h -2.65501 v 4.047773 h 2.75943 v -0.51435 h -2.20169 v -1.29787"
         style="fill:#1c418a;fill-opacity:1;fill-rule:nonzero;stroke:none;stroke-width:0.0352778"
         id="path159" />
      <path
         d="m 124.57449,17.410489 h -0.73202 v -1.303514 h 0.73202 c 0.1083,0 0.2159,0.0088 0.32244,0.02575 0.10653,0.01693 0.20108,0.04833 0.28433,0.09419 0.0836,0.04586 0.15029,0.111478 0.20038,0.197203 0.0504,0.08573 0.0759,0.197556 0.0759,0.334433 0,0.137231 -0.0254,0.248709 -0.0759,0.334786 -0.0501,0.08537 -0.11677,0.151342 -0.20038,0.19685 -0.0832,0.04586 -0.1778,0.07726 -0.28433,0.09455 -0.10654,0.01729 -0.21414,0.02575 -0.32244,0.02575 z m 0.88582,0.294216 c 0.12594,-0.06668 0.23248,-0.148519 0.31962,-0.245533 0.0871,-0.09737 0.15381,-0.206375 0.20038,-0.325967 0.0466,-0.120297 0.0695,-0.24518 0.0695,-0.37465 0,-0.125589 -0.0194,-0.256116 -0.0582,-0.39123 -0.0385,-0.135467 -0.10725,-0.257528 -0.20603,-0.366184 -0.0988,-0.108655 -0.23354,-0.198261 -0.40393,-0.268464 -0.17039,-0.07056 -0.38699,-0.106186 -0.65052,-0.106186 h -1.44639 v 4.047773 h 0.55774 v -1.783645 h 0.6216 l 1.04563,1.783645 h 0.69744 l -1.16804,-1.846792 c 0.15486,-0.01482 0.29527,-0.05609 0.42121,-0.122767"
         style="fill:#1c418a;fill-opacity:1;fill-rule:nonzero;stroke:none;stroke-width:0.0352778"
         id="path161" />
      <path
         d="m 130.39532,18.276558 c -0.0734,0.196145 -0.17815,0.366889 -0.31397,0.511528 -0.13547,0.144639 -0.2981,0.259997 -0.48789,0.346075 -0.1898,0.08573 -0.40252,0.128411 -0.63888,0.128411 -0.23636,0 -0.44944,-0.04269 -0.63924,-0.128411 -0.18979,-0.08608 -0.35242,-0.201436 -0.48789,-0.346075 -0.13547,-0.144639 -0.23989,-0.315383 -0.31362,-0.511528 -0.0737,-0.196497 -0.11042,-0.404989 -0.11042,-0.62618 0,-0.220839 0.0367,-0.429684 0.11042,-0.625828 0.0737,-0.196145 0.17815,-0.366889 0.31362,-0.511881 0.13547,-0.144639 0.2981,-0.259997 0.48789,-0.345722 0.1898,-0.08573 0.40288,-0.128411 0.63924,-0.128411 0.23636,0 0.44908,0.04269 0.63888,0.128411 0.18979,0.08573 0.35242,0.201083 0.48789,0.345722 0.13582,0.144992 0.24059,0.315736 0.31397,0.511881 0.0737,0.196144 0.11042,0.404989 0.11042,0.625828 0,0.221191 -0.0367,0.429683 -0.11042,0.62618 z m 0.54328,-1.466497 c -0.10689,-0.258939 -0.254,-0.484011 -0.44168,-0.674511 -0.18768,-0.1905 -0.41345,-0.340078 -0.67663,-0.448734 -0.26352,-0.108655 -0.55209,-0.162983 -0.86571,-0.162983 -0.31362,0 -0.6022,0.05433 -0.86537,0.162983 -0.26352,0.108656 -0.48895,0.258234 -0.67698,0.448734 -0.18803,0.1905 -0.33514,0.415572 -0.44132,0.674511 -0.10654,0.259292 -0.15981,0.539397 -0.15981,0.840317 0,0.301272 0.0533,0.581377 0.15981,0.840316 0.10618,0.259292 0.25329,0.484364 0.44132,0.674864 0.18803,0.1905 0.41346,0.340078 0.67698,0.448734 0.26317,0.108655 0.55175,0.162983 0.86537,0.162983 0.31362,0 0.60219,-0.05433 0.86571,-0.162983 0.26318,-0.108656 0.48895,-0.258234 0.67663,-0.448734 0.18768,-0.1905 0.33479,-0.415572 0.44168,-0.674864 0.10654,-0.258939 0.15945,-0.539044 0.15945,-0.840316 0,-0.30092 -0.0529,-0.581025 -0.15945,-0.840317"
         style="fill:#1c418a;fill-opacity:1;fill-rule:nonzero;stroke:none;stroke-width:0.0352778"
         id="path163" />
      <path
         d="m 121.56529,18.856878 c -0.0617,0.08749 -0.13758,0.156986 -0.22648,0.208491 -0.0892,0.05151 -0.18521,0.08573 -0.28787,0.103011 -0.1023,0.01693 -0.19614,0.02575 -0.28151,0.02575 h -0.81915 v -1.406525 h 0.82514 c 0.27094,0 0.48578,0.06033 0.64453,0.18027 0.1591,0.119944 0.23812,0.300214 0.23812,0.540102 0,0.144992 -0.031,0.261056 -0.0928,0.348898 z m -1.61501,-2.749903 h 0.87735 c 0.22437,0 0.38912,0.05927 0.49389,0.177094 0.10443,0.118181 0.15664,0.257528 0.15664,0.417336 0,0.11042 -0.0201,0.203906 -0.0607,0.280106 -0.0409,0.07655 -0.096,0.138994 -0.16581,0.188736 -0.0695,0.04939 -0.15099,0.08502 -0.24412,0.105833 -0.0928,0.02081 -0.19156,0.0314 -0.29598,0.0314 h -0.76129 z m 2.04187,1.746603 c -0.0794,-0.08961 -0.17321,-0.162278 -0.28151,-0.217312 -0.10866,-0.05503 -0.22472,-0.08678 -0.34855,-0.09454 v -0.01129 c 0.2092,-0.06879 0.37924,-0.176036 0.51118,-0.323144 0.13194,-0.146403 0.19755,-0.336198 0.19755,-0.568678 0,-0.17145 -0.0321,-0.321028 -0.096,-0.448734 -0.0639,-0.127705 -0.15099,-0.23248 -0.26141,-0.314677 -0.11042,-0.08184 -0.24201,-0.143581 -0.39511,-0.185561 -0.15275,-0.04198 -0.31821,-0.06315 -0.49671,-0.06315 h -1.42911 v 4.047773 h 1.41182 c 0.20144,0 0.38947,-0.0247 0.56374,-0.07444 0.17427,-0.04939 0.32702,-0.121709 0.45896,-0.217311 0.13159,-0.09525 0.23531,-0.212373 0.3108,-0.351367 0.0751,-0.138995 0.11289,-0.299861 0.11289,-0.483306 0,-0.136877 -0.0233,-0.264583 -0.0695,-0.382764 -0.0466,-0.11818 -0.10936,-0.22225 -0.18909,-0.311502"
         style="fill:#1c418a;fill-opacity:1;fill-rule:nonzero;stroke:none;stroke-width:0.0352778"
         id="path165" />
      <path
         d="m 116.01751,18.690719 h -0.0233 l -1.3074,-3.064228 h -0.83044 v 4.047773 h 0.55774 v -3.327048 h 0.0117 l 1.38853,3.327048 h 0.37147 l 1.38854,-3.327048 h 0.0116 v 3.327048 h 0.55739 v -4.047773 h -0.83044 l -1.2954,3.064228"
         style="fill:#1c418a;fill-opacity:1;fill-rule:nonzero;stroke:none;stroke-width:0.0352778"
         id="path167" />
      <path
         d="m 106.08399,16.141194 h 1.32433 v 3.53307 h 0.55774 v -3.53307 h 1.32468 v -0.514703 h -3.20675 v 0.514703"
         style="fill:#1c418a;fill-opacity:1;fill-rule:nonzero;stroke:none;stroke-width:0.0352778"
         id="path169" />
      <path
         d="m 110.67293,17.862044 h 1.95227 v -0.514703 h -1.95227 v -1.206147 h 2.09726 v -0.514703 h -2.65501 v 4.047773 h 2.75978 v -0.51435 h -2.20203 v -1.29787"
         style="fill:#1c418a;fill-opacity:1;fill-rule:nonzero;stroke:none;stroke-width:0.0352778"
         id="path171" />
      <path
         d="m 85.748821,18.125217 c -0.01729,0.182738 -0.05539,0.358775 -0.113242,0.528461 -0.05786,0.169686 -0.144286,0.313972 -0.258586,0.4318 -0.1143,0.117827 -0.268111,0.177094 -0.461786,0.177094 -0.193675,0 -0.347486,-0.05927 -0.461786,-0.177094 -0.1143,-0.117828 -0.200378,-0.262114 -0.258587,-0.4318 -0.05821,-0.169686 -0.09596,-0.345723 -0.113241,-0.528461 -0.01729,-0.183092 -0.02611,-0.341137 -0.02611,-0.474839 0,-0.09137 0.0032,-0.195087 0.0088,-0.311503 0.0056,-0.116064 0.01905,-0.234245 0.04057,-0.354542 0.02117,-0.119944 0.05115,-0.236008 0.08996,-0.348897 0.03881,-0.111831 0.08996,-0.213078 0.154164,-0.302683 0.06385,-0.08925 0.14217,-0.160867 0.23495,-0.214489 0.09313,-0.05327 0.203553,-0.07973 0.331259,-0.07973 0.127705,0 0.238125,0.02646 0.331258,0.07973 0.09278,0.05362 0.17145,0.125236 0.23495,0.214489 0.06421,0.0896 0.115358,0.190852 0.154164,0.302683 0.03881,0.112889 0.06879,0.228953 0.08996,0.348897 0.02152,0.120297 0.03493,0.238478 0.04057,0.354542 0.006,0.116416 0.0088,0.220133 0.0088,0.311503 0,0.133702 -0.0088,0.291747 -0.0261,0.474839 z m 0.47625,-1.409348 c -0.04057,-0.154516 -0.0949,-0.301978 -0.162631,-0.443089 -0.06773,-0.141111 -0.154869,-0.263878 -0.261055,-0.368653 -0.106892,-0.105127 -0.232481,-0.188736 -0.377825,-0.25153 -0.145345,-0.06315 -0.314678,-0.09455 -0.508353,-0.09455 -0.193675,0 -0.363009,0.0314 -0.508353,0.09455 -0.144992,0.06279 -0.270933,0.146403 -0.377472,0.25153 -0.106539,0.104775 -0.193675,0.227542 -0.261409,0.368653 -0.06773,0.141111 -0.122061,0.288573 -0.16263,0.443089 -0.04092,0.154164 -0.06879,0.311503 -0.08431,0.471664 -0.01552,0.159808 -0.02328,0.314325 -0.02328,0.462845 0,0.213783 0.0194,0.442383 0.05821,0.686152 0.0388,0.24377 0.110419,0.470606 0.214842,0.680156 0.104422,0.209903 0.248708,0.383117 0.432858,0.520347 0.183797,0.137231 0.421217,0.206022 0.711553,0.206022 0.290689,0 0.527755,-0.06879 0.711553,-0.206022 0.183797,-0.13723 0.328436,-0.310444 0.432858,-0.520347 0.104775,-0.20955 0.176036,-0.436386 0.214842,-0.680156 0.0388,-0.243769 0.05821,-0.472369 0.05821,-0.686152 0,-0.14852 -0.0078,-0.303037 -0.02328,-0.462845 -0.01517,-0.160161 -0.04375,-0.3175 -0.08431,-0.471664"
         style="fill:#1c418a;fill-opacity:1;fill-rule:nonzero;stroke:none;stroke-width:0.0352778"
         id="path173" />
      <path
         d="m 82.591459,17.907905 c -0.0695,-0.09172 -0.154869,-0.167922 -0.255411,-0.228952 -0.100894,-0.06068 -0.215194,-0.103012 -0.3429,-0.125589 v -0.01164 c 0.209197,-0.06068 0.378531,-0.175331 0.508353,-0.3429 0.129822,-0.167569 0.194733,-0.358069 0.194733,-0.571853 0,-0.186619 -0.03387,-0.34925 -0.1016,-0.488597 -0.06809,-0.138995 -0.159808,-0.254353 -0.276225,-0.345722 -0.116064,-0.09172 -0.250472,-0.159103 -0.403577,-0.2032 -0.153106,-0.04374 -0.312914,-0.06562 -0.479425,-0.06562 -0.274814,0 -0.523523,0.06209 -0.746478,0.185561 -0.222603,0.124178 -0.388409,0.315736 -0.496359,0.574675 l 0.569031,0.188736 c 0.06209,-0.140758 0.153811,-0.254353 0.275872,-0.340078 0.122061,-0.08573 0.258586,-0.128763 0.409928,-0.128763 0.197203,0 0.36195,0.05539 0.493536,0.166158 0.131586,0.110067 0.197556,0.274108 0.197556,0.491419 0,0.09913 -0.01552,0.188737 -0.04657,0.268817 -0.03104,0.07973 -0.08502,0.146403 -0.162631,0.199672 -0.07761,0.05362 -0.183797,0.09455 -0.319616,0.122767 -0.135467,0.02893 -0.309739,0.04339 -0.522464,0.04339 v 0.48013 c 0.131233,0 0.264936,0.0078 0.400755,0.02293 0.135467,0.01517 0.259292,0.04868 0.371828,0.09984 0.112184,0.0515 0.203906,0.127705 0.275872,0.228953 0.07161,0.100894 0.107245,0.235303 0.107245,0.402872 0,0.110772 -0.02117,0.210608 -0.06385,0.300214 -0.04233,0.0896 -0.09984,0.165453 -0.173567,0.2286 -0.07303,0.06279 -0.156986,0.112536 -0.25153,0.148872 -0.09454,0.03598 -0.195792,0.05397 -0.303742,0.05397 -0.216253,0 -0.379236,-0.04727 -0.48895,-0.142875 -0.110067,-0.09525 -0.197908,-0.240242 -0.263525,-0.434269 l -0.592314,0.177094 c 0.09278,0.3048 0.258234,0.527756 0.496359,0.668867 0.238477,0.141111 0.51435,0.211666 0.827969,0.211666 0.182033,0 0.355247,-0.02505 0.519995,-0.07444 0.164394,-0.04974 0.309738,-0.122766 0.435327,-0.220133 0.126295,-0.09701 0.226836,-0.219075 0.302331,-0.365831 0.07549,-0.146755 0.113242,-0.3175 0.113242,-0.51188 0,-0.125942 -0.01729,-0.244828 -0.05221,-0.357011 -0.03493,-0.112536 -0.08714,-0.214489 -0.156987,-0.305859"
         style="fill:#1c418a;fill-opacity:1;fill-rule:nonzero;stroke:none;stroke-width:0.0352778"
         id="path175" />
      <path
         d="m 103.36972,24.886909 c -0.12136,0.116063 -0.27905,0.174272 -0.47343,0.174272 -0.0875,0 -0.17074,-0.01446 -0.25012,-0.04304 -0.0794,-0.02858 -0.14887,-0.0695 -0.20884,-0.122061 -0.06,-0.05256 -0.1076,-0.117828 -0.14323,-0.195792 -0.0356,-0.07796 -0.0536,-0.166511 -0.0536,-0.265289 0,-0.182033 0.0617,-0.330553 0.18485,-0.446969 0.12277,-0.116417 0.28011,-0.176036 0.47096,-0.179211 0.0907,0 0.17568,0.0134 0.25506,0.04057 0.0794,0.02681 0.14887,0.06703 0.20884,0.119592 0.0596,0.05221 0.1069,0.117828 0.14076,0.195791 0.0342,0.07796 0.0512,0.168275 0.0512,0.270228 0,0.184503 -0.0607,0.335139 -0.18239,0.451909 z m -0.97614,-1.818923 c -0.0243,-0.0635 -0.0363,-0.129116 -0.0363,-0.195791 0,-0.159456 0.0526,-0.288573 0.15769,-0.387703 0.10548,-0.09842 0.23248,-0.147814 0.38135,-0.147814 0.16193,0 0.2921,0.05009 0.39088,0.150636 0.0991,0.100189 0.14817,0.2286 0.14817,0.384881 0,0.06985 -0.0113,0.136525 -0.0339,0.200377 -0.0226,0.06385 -0.0568,0.12065 -0.10195,0.169686 -0.0455,0.04939 -0.10125,0.08925 -0.16757,0.119592 -0.0663,0.03034 -0.14499,0.04551 -0.23566,0.04551 -0.0875,0 -0.16439,-0.01623 -0.23072,-0.04798 -0.0663,-0.03175 -0.12206,-0.07232 -0.16756,-0.121709 -0.0455,-0.04974 -0.0801,-0.106186 -0.10443,-0.169685 z m 1.43546,0.83432 c -0.0582,-0.07197 -0.127,-0.132645 -0.20638,-0.182034 -0.0794,-0.04939 -0.16616,-0.08678 -0.26,-0.112183 v -0.01446 c 0.0646,-0.01587 0.12947,-0.04445 0.19438,-0.08608 0.0646,-0.04127 0.12207,-0.09384 0.17216,-0.157691 0.0501,-0.0635 0.0917,-0.141111 0.12382,-0.231775 0.0325,-0.09102 0.0487,-0.195086 0.0487,-0.313267 0,-0.127 -0.0268,-0.242711 -0.0801,-0.346075 -0.0536,-0.103717 -0.12594,-0.192264 -0.21872,-0.265642 -0.0921,-0.07303 -0.19897,-0.129822 -0.32033,-0.169333 -0.12135,-0.04022 -0.25012,-0.05997 -0.38629,-0.05997 -0.13582,0 -0.26458,0.01975 -0.38594,0.05997 -0.12171,0.03951 -0.22824,0.09631 -0.32067,0.169333 -0.0924,0.07338 -0.1651,0.161925 -0.21837,0.265642 -0.0536,0.103364 -0.0804,0.219075 -0.0804,0.346075 0,0.118181 0.0162,0.22225 0.0487,0.313267 0.0321,0.09066 0.0737,0.168275 0.12382,0.231775 0.0501,0.06385 0.1076,0.116416 0.17251,0.157691 0.0649,0.04163 0.12947,0.0702 0.19438,0.08608 v 0.01446 c -0.0938,0.0254 -0.18062,0.0628 -0.26,0.112183 -0.0794,0.04939 -0.14816,0.110067 -0.20637,0.182034 -0.0582,0.07161 -0.10442,0.151694 -0.13864,0.2413 -0.0339,0.0889 -0.0508,0.186266 -0.0508,0.291394 0,0.159456 0.0289,0.302684 0.0875,0.430036 0.0582,0.127706 0.13758,0.236009 0.23777,0.324909 0.10019,0.08925 0.21943,0.157339 0.35701,0.2032 0.13758,0.04621 0.28434,0.0695 0.43956,0.0695 0.15522,0 0.30198,-0.02328 0.43992,-0.0695 0.13758,-0.04586 0.25646,-0.113947 0.35665,-0.2032 0.10055,-0.0889 0.17992,-0.197203 0.23813,-0.324909 0.0582,-0.127352 0.0871,-0.27058 0.0871,-0.430036 0,-0.105128 -0.0169,-0.202494 -0.0508,-0.291394 -0.0339,-0.08961 -0.0801,-0.169686 -0.13828,-0.2413"
         style="fill:#1c418a;fill-opacity:1;fill-rule:nonzero;stroke:none;stroke-width:0.0352778"
         id="path177" />
      <path
         d="m 96.727971,22.800228 0.271992,0.320322 0.631472,-0.573617 v 2.858206 h 0.466373 v -3.384197 h -0.413103 l -0.956734,0.779286"
         style="fill:#1c418a;fill-opacity:1;fill-rule:nonzero;stroke:none;stroke-width:0.0352778"
         id="path179" />
      <path
         d="m 108.59612,24.886909 c -0.12135,0.116063 -0.27905,0.174272 -0.47378,0.174272 -0.0875,0 -0.17039,-0.01446 -0.25012,-0.04304 -0.0794,-0.02858 -0.14887,-0.0695 -0.20884,-0.122061 -0.06,-0.05256 -0.10725,-0.117828 -0.14323,-0.195792 -0.0356,-0.07796 -0.0533,-0.166511 -0.0533,-0.265289 0,-0.182033 0.0614,-0.330553 0.1845,-0.446969 0.12312,-0.116417 0.28011,-0.176036 0.47096,-0.179211 0.091,0 0.17568,0.0134 0.25541,0.04057 0.079,0.02681 0.14887,0.06703 0.20849,0.119592 0.0596,0.05221 0.1069,0.117828 0.14076,0.195791 0.0346,0.07796 0.0512,0.168275 0.0512,0.270228 0,0.184503 -0.0603,0.335139 -0.18204,0.451909 z m -0.97649,-1.818923 c -0.024,-0.0635 -0.036,-0.129116 -0.036,-0.195791 0,-0.159456 0.0522,-0.288573 0.15769,-0.387703 0.10513,-0.09842 0.23213,-0.147814 0.381,-0.147814 0.16193,0 0.2921,0.05009 0.39088,0.150636 0.0991,0.100189 0.14817,0.2286 0.14817,0.384881 0,0.06985 -0.0113,0.136525 -0.0335,0.200377 -0.0229,0.06385 -0.0568,0.12065 -0.10195,0.169686 -0.0455,0.04939 -0.1016,0.08925 -0.16792,0.119592 -0.0663,0.03034 -0.14464,0.04551 -0.23566,0.04551 -0.0875,0 -0.16439,-0.01623 -0.23036,-0.04798 -0.0667,-0.03175 -0.12242,-0.07232 -0.16792,-0.121709 -0.0455,-0.04974 -0.0797,-0.106186 -0.10443,-0.169685 z m 1.43546,0.83432 c -0.0582,-0.07197 -0.127,-0.132645 -0.20638,-0.182034 -0.0794,-0.04939 -0.16616,-0.08678 -0.26,-0.112183 v -0.01446 c 0.0649,-0.01587 0.12947,-0.04445 0.19438,-0.08608 0.0649,-0.04127 0.12242,-0.09384 0.17216,-0.157691 0.0504,-0.0635 0.0917,-0.141111 0.12418,-0.231775 0.0324,-0.09102 0.0487,-0.195086 0.0487,-0.313267 0,-0.127 -0.0272,-0.242711 -0.0804,-0.346075 -0.0533,-0.103717 -0.12594,-0.192264 -0.21837,-0.265642 -0.0924,-0.07303 -0.19932,-0.129822 -0.32068,-0.169333 -0.12135,-0.04022 -0.25012,-0.05997 -0.38629,-0.05997 -0.13582,0 -0.26458,0.01975 -0.38594,0.05997 -0.12135,0.03951 -0.22824,0.09631 -0.32067,0.169333 -0.0924,0.07338 -0.1651,0.161925 -0.21837,0.265642 -0.0533,0.103364 -0.0804,0.219075 -0.0804,0.346075 0,0.118181 0.0162,0.22225 0.0487,0.313267 0.0324,0.09066 0.0737,0.168275 0.12418,0.231775 0.0497,0.06385 0.10724,0.116416 0.17215,0.157691 0.0649,0.04163 0.12947,0.0702 0.19438,0.08608 v 0.01446 c -0.0938,0.0254 -0.18062,0.0628 -0.26,0.112183 -0.0794,0.04939 -0.14816,0.110067 -0.20637,0.182034 -0.0586,0.07161 -0.10407,0.151694 -0.13829,0.2413 -0.0342,0.0889 -0.0511,0.186266 -0.0511,0.291394 0,0.159456 0.0289,0.302684 0.0875,0.430036 0.0582,0.127706 0.13758,0.236009 0.23777,0.324909 0.10019,0.08925 0.21943,0.157339 0.35736,0.2032 0.13759,0.04621 0.28399,0.0695 0.43921,0.0695 0.15522,0 0.30198,-0.02328 0.43992,-0.0695 0.13758,-0.04586 0.25646,-0.113947 0.35665,-0.2032 0.10055,-0.0889 0.17992,-0.197203 0.23848,-0.324909 0.0579,-0.127352 0.0871,-0.27058 0.0871,-0.430036 0,-0.105128 -0.0169,-0.202494 -0.0512,-0.291394 -0.0339,-0.08961 -0.0797,-0.169686 -0.13828,-0.2413"
         style="fill:#1c418a;fill-opacity:1;fill-rule:nonzero;stroke:none;stroke-width:0.0352778"
         id="path181" />
      <path
         d="m 114.43177,24.184175 c -0.0293,-0.09419 -0.073,-0.179211 -0.13123,-0.256116 -0.0582,-0.0762 -0.12947,-0.140053 -0.21378,-0.190853 -0.0843,-0.05115 -0.17957,-0.08643 -0.28646,-0.105128 v -0.0095 c 0.17498,-0.05115 0.31644,-0.146756 0.4251,-0.286808 0.1083,-0.140406 0.16263,-0.299862 0.16263,-0.478014 0,-0.156281 -0.0282,-0.292453 -0.0847,-0.40887 -0.0571,-0.116416 -0.1337,-0.212725 -0.23107,-0.288925 -0.097,-0.07655 -0.20955,-0.132997 -0.33761,-0.169686 -0.1277,-0.03669 -0.2614,-0.05503 -0.40075,-0.05503 -0.23001,0 -0.4378,0.0515 -0.62371,0.155222 -0.18627,0.103717 -0.32491,0.263525 -0.41558,0.480131 l 0.47625,0.158044 c 0.0515,-0.118181 0.12842,-0.212725 0.23037,-0.284339 0.10195,-0.07197 0.2159,-0.107597 0.3429,-0.107597 0.16475,0 0.30233,0.04586 0.41275,0.138642 0.10971,0.09243 0.16475,0.229305 0.16475,0.410986 0,0.0829 -0.0131,0.157691 -0.0388,0.224719 -0.0258,0.06668 -0.0713,0.122414 -0.13617,0.167217 -0.0646,0.04445 -0.15346,0.07902 -0.2667,0.102658 -0.1136,0.02399 -0.25929,0.03598 -0.43745,0.03598 v 0.401461 c 0.11007,0 0.2219,0.0063 0.33514,0.01905 0.1136,0.0127 0.21696,0.04057 0.3108,0.08361 0.0938,0.04304 0.1711,0.106892 0.23107,0.191558 0.06,0.08396 0.09,0.196498 0.09,0.33655 0,0.09278 -0.018,0.176389 -0.0536,0.251178 -0.0353,0.07479 -0.0836,0.138642 -0.145,0.190853 -0.0614,0.05292 -0.13158,0.09419 -0.2106,0.124178 -0.079,0.03069 -0.16369,0.04586 -0.254,0.04586 -0.18063,0 -0.31715,-0.03986 -0.40887,-0.119592 -0.0917,-0.07937 -0.16546,-0.20073 -0.22014,-0.363361 l -0.49565,0.148167 c 0.078,0.255058 0.21625,0.441678 0.41557,0.559505 0.19897,0.117828 0.42969,0.176742 0.69215,0.176742 0.1517,0 0.29704,-0.02081 0.43462,-0.06244 0.13759,-0.04128 0.2593,-0.102658 0.36407,-0.183797 0.10513,-0.08149 0.1898,-0.183444 0.25259,-0.305858 0.0632,-0.122767 0.0949,-0.265289 0.0949,-0.42792 0,-0.105128 -0.0145,-0.204611 -0.0438,-0.29845"
         style="fill:#1c418a;fill-opacity:1;fill-rule:nonzero;stroke:none;stroke-width:0.0352778"
         id="path183" />
      <path
         d="m 105.58375,98.885227 0.006,-0.0095 0.006,0.0095 c 0,0 0.006,-0.0081 0.006,-0.0092 7.1e-4,0.0011 0.006,0.0092 0.006,0.0092 l 0.006,-0.0095 0.006,0.0095 c 0,0 0.13123,-0.181328 0.36124,-0.474133 v -0.03069 c 0.95426,-1.211439 3.55953,-4.272845 6.20995,-5.225697 3.32881,-1.196623 16.04469,-2.206626 23.99665,-10.942815 2.12407,-2.333272 3.93524,-4.906081 5.24722,-7.830609 H 69.768692 c 1.311981,2.924528 3.123142,5.497337 5.247217,7.830609 7.951964,8.736189 20.667487,9.746192 23.996651,10.942815 2.65042,0.952852 5.25568,4.014258 6.2096,5.225697"
         style="fill:#00a650;fill-opacity:1;fill-rule:nonzero;stroke:none;stroke-width:0.0352778"
         id="path185" />
      <path
         d="m 140.02651,68.22037 c -0.13406,-0.856545 -0.35031,-2.235553 -0.48437,-3.092451 -6.70277,1.185687 -13.39885,2.415823 -20.09634,3.63714 -0.24553,-0.744362 -0.55068,-1.461559 -0.91193,-2.145948 6.41033,-2.548467 12.84605,-5.042606 19.17559,-7.760759 -0.37218,-0.785636 -0.97155,-2.049991 -1.34373,-2.835628 -6.23146,3.049059 -12.44282,6.140804 -18.65877,9.223023 -0.42404,-0.621241 -0.89747,-1.2065 -1.41358,-1.752953 5.5365,-4.297892 11.11956,-8.544631 16.52976,-12.984692 -0.58103,-0.651581 -1.51554,-1.700389 -2.09656,-2.352322 -5.21018,4.728986 -10.38754,9.494661 -15.57302,14.251164 -0.55387,-0.470253 -1.14618,-0.897466 -1.76883,-1.281289 4.15713,-5.742517 8.37847,-11.444464 12.37297,-17.288581 -0.74295,-0.46602 -1.93851,-1.21532 -2.68146,-1.680987 -3.70981,6.060018 -7.37623,12.147198 -11.05465,18.227324 -0.63817,-0.304447 -1.30175,-0.564445 -1.9879,-0.774347 2.38337,-6.733823 4.84576,-13.444715 7.04427,-20.231454 -0.84596,-0.242359 -2.20663,-0.632884 -3.05259,-0.875595 -1.85561,6.903156 -3.66113,13.820423 -5.48075,20.73381 -0.6791,-0.131234 -1.37548,-0.215548 -2.08563,-0.249414 0.37501,-7.166681 0.83573,-14.333362 1.01777,-21.500043 -0.88089,0 -2.2987,0 -3.17959,0 0.18204,7.169503 0.41699,14.338653 0.63606,21.507804 -0.77082,0.04304 -1.52435,0.147108 -2.25813,0.304447 -1.82527,-6.9342 -3.636081,-13.872634 -5.496984,-20.796604 -0.845961,0.242711 -2.206978,0.633236 -3.052586,0.875595 2.207683,6.816372 4.682419,13.556192 7.07531,20.319295 -0.67345,0.221192 -1.32468,0.488597 -1.949802,0.800806 -3.701697,-6.117873 -7.390695,-12.243506 -11.123789,-18.341624 -0.74295,0.465667 -1.938867,1.214967 -2.681817,1.680987 4.025194,5.888214 8.279695,11.632495 12.46752,17.419109 -0.604308,0.38735 -1.175456,0.819503 -1.712383,1.28905 -5.236281,-4.802364 -10.463037,-9.614606 -15.72366,-14.389453 -0.581025,0.651933 -1.515886,1.700741 -2.096911,2.352322 5.468409,4.487333 11.111795,8.777817 16.706851,13.122981 -0.497064,0.540103 -0.954617,1.116189 -1.363486,1.727553 -6.291439,-3.119614 -12.57794,-6.249811 -18.885607,-9.335912 -0.37218,0.785637 -0.97155,2.049992 -1.344083,2.835628 6.4135,2.754137 12.935656,5.278262 19.429943,7.861654 -0.346781,0.67063 -0.641703,1.370894 -0.877712,2.097616 -6.793794,-1.238602 -13.585825,-2.487083 -20.384912,-3.689703 -0.134056,0.856898 -0.349956,2.235906 -0.484011,3.092451 6.798028,0.860425 13.633804,1.479903 20.461112,2.155472 -0.125236,0.624417 -0.211666,1.262592 -0.250472,1.91382 h 28.734109 c -0.0399,-0.661459 -0.12736,-1.309512 -0.25612,-1.943453 6.72712,-0.663928 13.46235,-1.278114 20.1609,-2.125839"
         style="fill:#fff319;fill-opacity:1;fill-rule:evenodd;stroke:none;stroke-width:0.0352778"
         id="path187" />
      <path
         d="m 103.35455,66.733411 c -1.4478,-1.820333 -4.266848,-1.8669 -5.797198,-0.0762 -0.09419,0.109361 -0.217664,0.171097 -0.282575,0.127706 -0.06456,-0.04304 -0.04269,-0.189442 0.05821,-0.316089 1.617134,-2.026003 4.757203,-2.07257 6.456893,-0.0762 0.10689,0.12453 0.0818,0.305153 -0.0473,0.392289 -0.12947,0.08749 -0.29951,0.05997 -0.38806,-0.05151"
         style="fill:#652f15;fill-opacity:1;fill-rule:nonzero;stroke:none;stroke-width:0.0352778"
         id="path189" />
      <path
         d="m 103.03387,67.47742 c -1.30351,-1.530703 -3.711218,-1.495073 -4.951232,0.05856 -0.07726,0.09701 -0.09454,0.20955 -0.04445,0.242358 0.04939,0.03316 0.143933,-0.01411 0.216606,-0.09772 0.642055,-0.751417 1.579739,-1.078089 2.479326,-0.993775 -0.21202,0.155927 -0.35137,0.402519 -0.35137,0.68333 0,0.47237 0.38911,0.855134 0.86889,0.855134 0.15346,0 0.29704,-0.03916 0.42192,-0.107598 -0.27093,-0.03316 -0.48119,-0.260702 -0.48119,-0.536927 0,-0.298803 0.2466,-0.541162 0.54999,-0.541162 0.0674,0 0.13158,0.01199 0.1912,0.03351 0.001,7.06e-4 0.002,0.0011 0.003,0.0018 0.019,0.0071 0.0339,0.02046 0.0515,0.02963 0.26458,0.1651 0.50624,0.376062 0.71191,0.634295 0.0677,0.08572 0.19826,0.106539 0.29739,0.03951 0.0991,-0.06703 0.11818,-0.205317 0.0363,-0.300919"
         style="fill:#652f15;fill-opacity:1;fill-rule:nonzero;stroke:none;stroke-width:0.0352778"
         id="path191" />
      <path
         d="m 113.4634,66.733411 c -1.44816,-1.820333 -4.2672,-1.8669 -5.79755,-0.0762 -0.0942,0.109361 -0.21767,0.171097 -0.28258,0.127706 -0.0646,-0.04304 -0.0427,-0.189442 0.0579,-0.316089 1.61713,-2.026003 4.75756,-2.07257 6.45689,-0.0762 0.10689,0.12453 0.0822,0.305153 -0.0473,0.392289 -0.12912,0.08749 -0.29916,0.05997 -0.38735,-0.05151"
         style="fill:#652f15;fill-opacity:1;fill-rule:nonzero;stroke:none;stroke-width:0.0352778"
         id="path193" />
      <path
         d="m 113.14237,67.47742 c -1.30351,-1.530703 -3.71122,-1.495073 -4.95159,0.05856 -0.0769,0.09701 -0.0942,0.20955 -0.0444,0.242358 0.0497,0.03316 0.14429,-0.01411 0.21696,-0.09772 0.6417,-0.751417 1.57938,-1.078089 2.47932,-0.993775 -0.21237,0.155927 -0.35137,0.402519 -0.35137,0.68333 0,0.47237 0.38877,0.855134 0.8689,0.855134 0.1531,0 0.29739,-0.03916 0.42192,-0.107598 -0.27129,-0.03316 -0.48119,-0.260702 -0.48119,-0.536927 0,-0.298803 0.24624,-0.541162 0.54998,-0.541162 0.0674,0 0.13159,0.01199 0.19085,0.03351 0.001,7.06e-4 0.002,0.0011 0.004,0.0018 0.0187,0.0071 0.0335,0.02046 0.0515,0.02963 0.26458,0.1651 0.50623,0.376062 0.71155,0.634295 0.0681,0.08572 0.19861,0.106539 0.29774,0.03951 0.0988,-0.06703 0.11818,-0.205317 0.0363,-0.300919"
         style="fill:#652f15;fill-opacity:1;fill-rule:nonzero;stroke:none;stroke-width:0.0352778"
         id="path195" />
      <path
         d="m 138.44218,73.140562 c -0.002,-0.0039 -0.006,-0.0071 -0.008,-0.01094 l -7.93398,-9.459384 c -0.20567,-0.244828 -0.51717,-0.281164 -0.75706,-0.115006 -0.004,0.0025 -0.007,0.0046 -0.0113,0.0071 -0.0416,0.03034 -0.0815,0.06491 -0.11747,0.107597 0,0 0,0 -3.5e-4,3.53e-4 l -4.72617,5.634567 -2.41794,-2.883253 c -0.17074,-0.203553 -0.41486,-0.261761 -0.63006,-0.181328 v 0 0 c -0.0437,0.01623 -0.0864,0.0381 -0.127,0.06632 -0.004,0.0025 -0.007,0.0046 -0.0113,0.0071 -0.0416,0.02999 -0.0815,0.06491 -0.11783,0.10795 l -4.74098,5.652911 -2.35408,-2.8067 c -0.18944,-0.226131 -0.46038,-0.290689 -0.69921,-0.201436 v 0 3.53e-4 c -0.0487,0.01799 -0.0956,0.04198 -0.14076,0.07338 -0.004,0.0028 -0.008,0.0049 -0.0127,0.0081 -0.0462,0.03351 -0.0907,0.07197 -0.13052,0.119592 l -8.8064,10.499373 c -0.003,0.0039 -0.007,0.0078 -0.01,0.01164 -0.0272,0.03246 -0.0508,0.06632 -0.0716,0.101601 -0.10477,0.174625 -0.13864,0.377472 -0.11571,0.570088 0.0459,0.384881 0.31786,0.729545 0.69921,0.729545 h 3.50555 14.08536 c 0.61066,0 0.94015,-0.881945 0.51223,-1.401234 -0.003,-0.0039 -0.006,-0.0078 -0.01,-0.01164 l -2.19181,-2.613025 h 8.84802 c 0.54998,0 0.84667,-0.794809 0.46143,-1.262592 -0.003,-0.0035 -0.006,-0.0071 -0.009,-0.01058 l -1.23966,-1.478139 h 8.81733 c 0.54963,0 0.84667,-0.794809 0.46108,-1.262239"
         style="fill:#ffffff;fill-opacity:1;fill-rule:nonzero;stroke:none;stroke-width:0.0352778"
         id="path197" />
      <path
         d="m 77.416209,62.682817 c -0.01729,-0.01729 -0.01729,-0.04516 3.53e-4,-0.06174 0.04374,-0.04057 0.08043,-0.08079 0.09843,-0.07408 0.0448,0.01729 0.09313,0.07197 0.101247,0.117475 0.0046,0.02681 -0.06526,0.09207 -0.102305,0.09278 -0.02928,7.05e-4 -0.05891,-0.03528 -0.09772,-0.07444 z m -4.90467,7.171267 c 0.006,0.0078 0.0095,0.01729 0.0092,0.02716 -0.0025,0.09878 -0.09384,0.18415 0.006,0.263877 0.125236,0.100189 0.231422,0.04516 0.329847,0.0085 0.205669,-0.07655 0.396169,-0.192264 0.596547,-0.284339 0.04092,-0.01905 0.129117,-0.02399 0.142875,-0.0025 0.09596,0.149577 0.230717,0.09666 0.340078,0.05398 0.136525,-0.05362 0.263172,-0.137584 0.383822,-0.222603 0.07232,-0.0508 0.107598,-0.04727 0.183445,0.0032 0.06879,0.04621 0.156986,0.06456 0.228247,0.08184 0.02787,0.0067 0.04163,0.0374 0.02787,0.06244 -0.02081,0.0381 -0.04515,0.08255 -0.06244,0.129117 -0.06597,0.178858 -0.115359,0.364419 -0.191206,0.538691 -0.07479,0.172861 -0.04374,0.318206 0.02928,0.485423 0.172155,0.394052 0.351719,0.790222 0.46743,1.201914 0.134409,0.476955 0.20567,0.97155 0.299156,1.459441 0.01764,0.09066 -0.0035,0.189442 0.0194,0.277636 0.02258,0.0889 0.07761,0.169687 0.12065,0.252942 0.01623,0.03175 0.04516,0.05821 0.05574,0.09102 0.07549,0.239183 0.164394,0.315383 0.415219,0.329494 0.124531,0.0071 0.249414,0.0028 0.386997,0.0018 0.02963,-3.53e-4 0.05045,-0.02858 0.04233,-0.0568 -0.06103,-0.207081 -0.190853,-0.313267 -0.369006,-0.380295 0.11042,-0.03492 0.263878,-3.52e-4 0.352778,0.128764 0.160514,0.233892 0.373239,0.186267 0.59443,0.152753 0.09913,-0.01517 0.200378,-0.02046 0.30092,-0.02822 0.02469,-0.0018 0.04233,-0.02364 0.04057,-0.04798 -0.01693,-0.204611 -0.254352,-0.259997 -0.477661,-0.3048 -0.210255,-0.04233 -0.424744,-0.08608 -0.620536,-0.167217 -0.111125,-0.04621 -0.234244,-0.153105 -0.273755,-0.260702 -0.167217,-0.455436 -0.323498,-0.91687 -0.447323,-1.385359 -0.09278,-0.352425 -0.13723,-0.717903 -0.1905,-1.079853 -0.04763,-0.323497 0.0568,-0.618419 0.230364,-0.886883 0.235656,-0.365125 0.488597,-0.718961 0.722842,-1.084792 0.06138,-0.09631 0.114653,-0.197555 0.169333,-0.29845 0.02434,-0.0441 0.09278,-0.0194 0.08185,0.02963 -0.0067,0.03175 -0.01376,0.06491 -0.02152,0.09948 -0.0078,0.03598 0.03034,0.06491 0.06315,0.04798 0.144287,-0.07267 0.274462,-0.134409 0.397581,-0.208139 0.577145,-0.34537 1.071739,-0.769409 1.300692,-1.420636 0.17533,-0.496712 0.137936,-0.996598 -0.06703,-1.473553 -0.155222,-0.360539 -0.378883,-0.693209 -0.531283,-1.054806 -0.193675,-0.459669 -0.360892,-0.93345 -0.181681,-1.445331 0.01023,-0.02963 -0.0018,-0.06703 -0.01482,-0.108655 -0.0092,-0.02822 0.01305,-0.05644 0.04339,-0.05574 0.19932,0.0067 0.356306,-0.132292 0.531636,-0.239536 0.09207,-0.05609 0.219428,-0.05891 0.331964,-0.07902 0.06562,-0.01199 0.135467,-0.0014 0.19932,-0.01729 0.02469,-0.0063 0.04515,-0.02787 0.06562,-0.04939 0.01588,-0.01658 0.01588,-0.04233 3.53e-4,-0.05927 -0.01799,-0.0194 -0.03634,-0.03845 -0.05856,-0.04798 -0.106539,-0.04551 -0.221545,-0.07408 -0.324203,-0.125941 -0.09102,-0.04586 -0.182739,-0.100189 -0.257528,-0.168275 -0.278694,-0.252942 -0.7239,-0.219075 -0.934861,0.09102 -0.223661,0.329142 -0.284692,0.702734 -0.254353,1.089731 0.03669,0.469547 0.160514,0.920044 0.353131,1.352903 0.128411,0.289277 0.244828,0.583494 0.359128,0.878416 0.09066,0.233539 0.127353,0.473075 -0.0702,0.673806 -0.206375,0.20955 -0.4699,0.220839 -0.728839,0.127706 -0.28575,-0.103012 -0.556683,-0.246592 -0.841022,-0.3556 -0.537281,-0.206728 -1.088673,-0.234245 -1.65347,-0.115006 -0.491419,0.103717 -0.956733,0.268464 -1.412169,0.478014 -0.22225,0.101953 -0.48507,0.115358 -0.718962,0.197555 -0.622652,0.21837 -1.113013,0.606778 -1.469672,1.156759 -0.05891,0.09066 -0.0695,0.160514 0.02223,0.244475 0.03316,0.03034 0.03528,0.128058 0.01235,0.177447 -0.192263,0.414867 -0.312914,0.843492 -0.26423,1.302103 0.04904,0.458964 0.265289,0.818092 0.687211,1.041047 0.08184,0.04339 0.165453,0.08925 0.245181,-0.01834 0.01305,-0.01764 0.06879,-0.09843 0.103716,-0.119945 0.09772,-0.06138 0.174625,-0.0049 0.221192,-0.10548 0.03845,-0.08255 0.02399,-0.176389 0.06773,-0.170039 0.02575,0.0039 0.04868,-0.01446 0.05045,-0.04022 0.0032,-0.04762 0.0081,-0.09596 -0.0078,-0.136878 -0.07937,-0.203905 0.302684,-0.08819 0.372886,-0.110772 0.29457,-0.0949 0.383117,-0.39123 0.438503,-0.32138"
         style="fill:#652f15;fill-opacity:1;fill-rule:nonzero;stroke:none;stroke-width:0.0352778"
         id="path199" />
      <path
         d="m 72.965212,72.598342 c 0.02928,-0.48013 0.02963,-0.962378 0.02716,-1.443567 -7.05e-4,-0.144991 -0.04127,-0.292805 -0.08184,-0.433916 -0.05856,-0.203906 -3.53e-4,-0.405342 0.178153,-0.518231 0.128058,-0.08079 0.261761,-0.1524 0.391936,-0.226836 0.0134,-0.0078 0.03069,-0.0071 0.0441,7.06e-4 0.381,0.220486 0.613128,-0.09525 0.885825,-0.233187 0.01623,-0.0081 0.03669,-0.0046 0.05045,0.0081 0.02893,0.02681 0.05609,0.05221 0.08185,0.07585 0.01905,0.01764 0.01799,0.04762 -0.0014,0.06456 -0.19685,0.166864 -0.391936,0.323497 -0.572911,0.494242 -0.198262,0.186266 -0.367242,0.397227 -0.422981,0.673452 -0.14605,0.721078 -0.221544,1.446389 -0.186267,2.184753 0.02328,0.498828 0.197556,0.666045 0.643114,0.771878 0.192617,0.04551 0.389467,0.07444 0.582084,0.119239 0.148166,0.03457 0.223308,0.126294 0.226836,0.245533 7.05e-4,0.02258 -0.01552,0.04233 -0.0381,0.04551 -0.121003,0.01693 -0.238478,0.03563 -0.356306,0.04762 -0.194733,0.02011 -0.379941,0.04057 -0.513644,-0.1651 -0.08961,-0.137584 -0.232481,-0.169334 -0.351014,-0.131586 0.170744,0.06914 0.296333,0.173213 0.358422,0.365125 0.0092,0.02787 -0.01164,0.0568 -0.04163,0.05715 -0.172508,0.0025 -0.331611,0.01411 -0.48648,-0.0049 -0.176389,-0.02187 -0.310092,-0.115006 -0.321734,-0.317853 -0.0018,-0.03105 -0.03387,-0.06738 -0.06174,-0.08925 -0.137583,-0.108655 -0.194028,-0.246239 -0.172508,-0.418394 0.04868,-0.38982 0.114653,-0.779286 0.138642,-1.17087"
         style="fill:#652f15;fill-opacity:1;fill-rule:nonzero;stroke:none;stroke-width:0.0352778"
         id="path201" />
      <path
         d="m 85.777748,74.44972 c -0.941211,0.238125 -2.299052,0.238125 -3.240264,0 -0.915811,-13.60664 0.0949,-25.967268 3.085748,-38.228061 0.424039,0.107245 0.851253,0.107245 1.275644,0 -3.544711,15.378996 -3.029303,23.094952 -1.121128,38.228061"
         style="fill:#652f15;fill-opacity:1;fill-rule:evenodd;stroke:none;stroke-width:0.0352778"
         id="path203" />
      <path
         d="m 86.87136,32.970459 5.508625,-4.725459 -1.7907,1.124303 1.3589,-2.445808 -1.815747,1.967794 1.154994,-2.978855 -1.630539,2.479675 0.991659,-3.243086 -1.53282,2.883252 0.802217,-3.706636 -1.378656,3.439584 0.515761,-3.938059 -1.134886,3.664656 0.175683,-3.962753 -0.703086,3.896078 -0.29598,-3.843514 -0.366536,3.95605 -0.581731,-3.683706 -0.03881,3.801887 -0.853016,-3.182056 0.248708,3.399014 -1.038931,-2.815167 0.46602,3.182761 -1.331384,-2.363258 0.781756,2.715331 -1.492956,-1.535995 3.981451,5.913967"
         style="fill:#00a650;fill-opacity:1;fill-rule:evenodd;stroke:none;stroke-width:0.0352778"
         id="path205" />
      <path
         d="m 86.530929,33.339465 -4.102453,-5.951009 0.917928,1.884892 -2.303286,-1.622778 1.766005,2.010833 -2.865614,-1.486958 2.304698,1.891947 -3.15207,-1.359958 2.723797,1.845028 -3.64243,-1.230489 3.303764,1.761419 -3.910542,-0.978253 3.559881,1.550459 -3.976159,-0.649464 3.845278,1.156406 -3.912659,-0.174273 3.946526,0.835025 -3.786365,0.124178 3.830815,0.496359 -3.312937,0.449791 3.458634,0.166864 -2.964745,0.67557 3.26637,-0.07161 -2.544234,1.015647 2.833159,-0.436386 -1.729317,1.273528 6.445956,-3.176764"
         style="fill:#00a650;fill-opacity:1;fill-rule:evenodd;stroke:none;stroke-width:0.0352778"
         id="path207" />
      <path
         d="m 92.786385,33.700004 4.019903,-0.08678 -4.005792,-0.436386 3.853745,-0.541867 -4.033309,-0.102305 3.665009,-0.813153 -3.845278,0.211667 3.13055,-1.048456 -3.408892,0.467078 2.740025,-1.205442 -3.167944,0.666397 2.253897,-1.464027 -2.664178,0.946855 1.40335,-1.569155 -5.589411,4.632678 5.328356,4.778375 -1.313745,-1.687689 2.607028,1.176514 -2.168878,-1.656645 3.1242,0.940859 -2.667353,-1.441803 3.374673,0.763058 -3.064228,-1.317625 3.823758,0.545042 -3.610328,-1.1303 4.028723,0.250119 -3.813881,-0.877005"
         style="fill:#00a650;fill-opacity:1;fill-rule:evenodd;stroke:none;stroke-width:0.0352778"
         id="path209" />
      <path
         d="m 86.827262,33.493276 -4.349397,2.804583 1.424869,-0.654755 -1.038577,1.490839 1.422752,-1.180395 -0.858308,1.828448 1.258359,-1.504598 -0.718256,1.997781 1.167694,-1.75895 -0.551744,2.291997 1.027642,-2.110317 -0.312561,2.444045 0.823383,-2.257072 -0.03563,2.468033 0.46602,-2.413 0.344311,2.406297 0.190853,-2.459214 0.572558,2.314223 -0.07126,-2.371726 0.779639,2.008364 -0.294217,-2.127602 0.920398,1.783997 -0.464609,-1.998486 1.145822,1.509536 -0.70873,-1.714853 1.255183,0.997656 -3.396192,-3.794831"
         style="fill:#00a650;fill-opacity:1;fill-rule:evenodd;stroke:none;stroke-width:0.0352778"
         id="path211" />
      <path
         d="m 159.78736,86.190165 c -0.14147,-0.1778 -0.32244,-0.328083 -0.54152,-0.433211 -2.00272,-0.959203 -5.07823,-0.144286 -7.98336,-1.172986 -2.91712,-1.032933 -1.96462,-3.2385 -3.99591,-3.410303 -0.68263,-0.0575 -1.32821,0.329142 -1.5868,0.953558 -6.0265,14.524568 -23.40892,25.825807 -40.24418,25.825807 -16.846908,0 -33.868084,-10.489145 -39.868834,-24.997837 -0.232128,-0.56127 -0.779992,-0.934156 -1.394884,-0.960967 -2.3241,-0.103011 -1.432983,1.526117 -4.435828,2.589742 l -7.7216,1.183217 c 10.51172,23.280865 29.848176,34.695695 53.607056,34.695695 23.58637,0 43.5416,-12.99527 54.16444,-34.268834 0,0 10e-4,-0.0032 10e-4,-0.0039"
         style="fill:#00a650;fill-opacity:1;fill-rule:nonzero;stroke:none;stroke-width:0.0352778"
         id="path249" />
      <path
         d="m 105.6215,120.46288 c -23.75888,0 -43.095336,-11.41483 -53.607056,-34.695695 -0.280459,0.07726 -0.548923,0.1651 -0.7874,0.279752 -0.751064,0.359481 -0.552803,0.946856 -0.243417,1.710267 8.6106,21.253096 29.789263,34.354206 54.515463,34.354206 24.7269,0 45.90556,-13.10146 54.51545,-34.354206 0.21873,-0.53975 0.11395,-1.132769 -0.2286,-1.563158 -10.62284,21.273564 -30.57807,34.268834 -54.16444,34.268834"
         style="fill:#fff319;fill-opacity:1;fill-rule:nonzero;stroke:none;stroke-width:0.0352778"
         id="path251" />
      <path
         d="m 49.692813,88.925604 c -0.171803,-0.39758 -0.7747,-0.277636 -0.780345,0.154164 v 0.0018 c -0.03775,3.329517 2.571751,8.064148 1.852789,10.714215 -0.08361,0.308687 0.213078,0.585617 0.521053,0.485427 0.954617,-0.309744 2.170995,-0.765886 3.484387,-1.314808 0.237772,-0.09948 0.32138,-0.387703 0.175683,-0.597606 -2.048228,-2.955925 -3.81247,-6.115755 -5.253567,-9.443156"
         style="fill:#00a650;fill-opacity:1;fill-rule:nonzero;stroke:none;stroke-width:0.0352778"
         id="path253" />
      <path
         d="M 58.833286,82.396746 C 56.408291,76.971023 55.25118,70.900775 55.706969,64.576881 c 0.05468,-0.757062 0.132644,-1.506009 0.231775,-2.247901 0.04586,-0.341136 -0.339725,-0.581377 -0.63112,-0.39123 -2.719564,1.773414 -5.386211,4.782961 -7.840133,8.278636 -0.132292,0.188384 -0.398287,0.235656 -0.584906,0.09807 -4.063295,-2.998612 -5.429956,-6.853767 -8.580191,-10.076745 -0.132186,1.025525 -0.239395,2.057753 -0.314749,3.101269 -0.989859,13.728701 3.214159,26.638252 10.965393,36.87022 0.372886,0.37359 0.690033,0.14676 0.74683,-0.13088 0.575734,-1.783293 -0.813505,-4.851754 -1.45803,-8.003119 -0.839611,-4.110214 -0.315736,-8.000294 4.894439,-8.238419 1.506714,-0.06844 3.204634,-0.03598 4.852811,-0.619126 0.1778,-0.06315 0.420864,-0.1778 0.658989,-0.299155 0.192617,-0.09807 0.272345,-0.325967 0.185209,-0.521758"
         style="fill:#00a650;fill-opacity:1;fill-rule:nonzero;stroke:none;stroke-width:0.0352778"
         id="path255" />
      <path
         d="m 173.27582,63.338983 c -0.0755,-1.043516 -0.18274,-2.075744 -0.31504,-3.101269 -3.1503,3.222978 -4.51661,7.078133 -8.58026,10.076745 -0.18662,0.137583 -0.45261,0.09031 -0.5849,-0.09807 -2.45393,-3.495675 -5.12022,-6.505222 -7.84014,-8.278636 -0.29104,-0.190147 -0.67662,0.05009 -0.63112,0.39123 0.0991,0.741892 0.1771,1.490839 0.23178,2.247901 0.45579,6.323894 -0.70097,12.394142 -3.12597,17.819865 -0.0875,0.195791 -0.008,0.423686 0.18486,0.521758 0.23813,0.121355 0.48119,0.236008 0.65899,0.299155 1.64818,0.583142 3.34645,0.550687 4.85281,0.619126 5.21018,0.238125 5.73405,4.128205 4.89444,8.238419 -0.64453,3.151365 -2.03341,6.219826 -1.45803,8.003113 0.0568,0.27764 0.37394,0.50447 0.74683,0.13088 7.75123,-10.231962 11.95529,-23.141513 10.96575,-36.870214"
         style="fill:#00a650;fill-opacity:1;fill-rule:nonzero;stroke:none;stroke-width:0.0352778"
         id="path257" />
      <path
         d="m 162.35099,89.081532 v -0.0018 c -0.006,-0.4318 -0.60854,-0.551744 -0.7807,-0.154164 -1.44074,3.327401 -3.20533,6.487231 -5.25356,9.443156 -0.1457,0.209903 -0.0617,0.498123 0.17568,0.597606 1.31375,0.548922 2.52977,1.005064 3.48439,1.3148 0.30833,0.10019 0.60466,-0.17674 0.52105,-0.485419 -0.71861,-2.650067 1.89054,-7.384698 1.85314,-10.714215"
         style="fill:#00a650;fill-opacity:1;fill-rule:nonzero;stroke:none;stroke-width:0.0352778"
         id="path259" />
      <path
         d="m 65.375903,93.153646 -2.828925,0.942623 -0.0078,-0.0095 1.605139,-2.511073 -0.883355,-1.131358 -3.394781,2.650419 0.5842,0.747889 2.6035,-2.032705 0.0074,0.0095 -1.933576,2.891366 0.445206,0.570442 3.299884,-1.141236 0.0078,0.0099 -2.603853,2.032705 0.5842,0.747889 3.394428,-2.650066 -0.879475,-1.126773"
         style="fill:#ffffff;fill-opacity:1;fill-rule:nonzero;stroke:none;stroke-width:0.0352778"
         id="path261" />
      <path
         d="m 69.411681,97.608524 -0.655461,-0.686505 -1.887009,1.802694 c -0.09666,0.09243 -0.201083,0.162631 -0.312561,0.210256 -0.111478,0.04763 -0.224014,0.07197 -0.337256,0.07373 -0.113241,0.0021 -0.223308,-0.01905 -0.329847,-0.06315 -0.106539,-0.0441 -0.2032,-0.11183 -0.289983,-0.202847 -0.08678,-0.09031 -0.150636,-0.191206 -0.191206,-0.30092 -0.04057,-0.110066 -0.05715,-0.221544 -0.05045,-0.334433 0.0071,-0.113594 0.03669,-0.224719 0.08961,-0.33408 0.05256,-0.108656 0.127352,-0.209903 0.224366,-0.301978 l 1.887009,-1.802695 -0.655461,-0.686505 -1.91382,1.828094 c -0.184503,0.176389 -0.328083,0.366889 -0.430036,0.570795 -0.102306,0.204258 -0.158045,0.415925 -0.167217,0.635352 -0.0095,0.219428 0.03175,0.441678 0.124178,0.667103 0.09243,0.226131 0.242358,0.447322 0.449792,0.664281 0.204258,0.214489 0.417336,0.372533 0.638528,0.475544 0.221191,0.102306 0.441677,0.153811 0.661458,0.154517 0.219075,7.06e-4 0.433211,-0.04516 0.641703,-0.137583 0.208844,-0.09278 0.405341,-0.227895 0.590197,-0.404284 l 1.913467,-1.827389"
         style="fill:#ffffff;fill-opacity:1;fill-rule:nonzero;stroke:none;stroke-width:0.0352778"
         id="path263" />
      <path
         d="m 72.472734,100.34326 -1.964267,2.25883 -0.0088,-0.008 0.582083,-3.459692 -0.972961,-0.846314 -2.826103,3.249436 0.715786,0.62301 2.011892,-2.313521 0.0092,0.0081 -0.593372,3.546831 0.936272,0.81421 2.826103,-3.24943 -0.715786,-0.62336"
         style="fill:#ffffff;fill-opacity:1;fill-rule:nonzero;stroke:none;stroke-width:0.0352778"
         id="path265" />
      <path
         d="m 73.998851,101.55646 -2.601031,3.43253 0.756355,0.57326 2.601031,-3.43323 -0.756355,-0.57256"
         style="fill:#ffffff;fill-opacity:1;fill-rule:nonzero;stroke:none;stroke-width:0.0352778"
         id="path267" />
      <path
         d="m 77.27404,105.23382 0.938036,-0.091 c -0.01235,-0.14958 -0.0448,-0.29034 -0.09737,-0.42333 -0.05292,-0.133 -0.119239,-0.25506 -0.198261,-0.36619 -0.07937,-0.11183 -0.167569,-0.21343 -0.264936,-0.3048 -0.09737,-0.0914 -0.196497,-0.17145 -0.297745,-0.23883 -0.280105,-0.18662 -0.567266,-0.31503 -0.862189,-0.38488 -0.294569,-0.0695 -0.582083,-0.0804 -0.8636,-0.0314 -0.281164,0.049 -0.547511,0.1577 -0.798689,0.32632 -0.25153,0.16863 -0.473075,0.39617 -0.66428,0.68298 -0.191206,0.28716 -0.316442,0.57891 -0.375709,0.87595 -0.05891,0.29669 -0.05715,0.5842 0.0056,0.86254 0.06315,0.27834 0.183444,0.5401 0.360892,0.78564 0.1778,0.24482 0.406752,0.46108 0.686505,0.64805 0.246239,0.16404 0.519642,0.2734 0.819856,0.32738 0.300214,0.0543 0.597253,0.0254 0.891117,-0.0857 l -0.330553,-0.92992 c -0.162278,0.0677 -0.327731,0.0935 -0.49777,0.0776 -0.169686,-0.0159 -0.335844,-0.0776 -0.497769,-0.18556 -0.141464,-0.0949 -0.255059,-0.21167 -0.339725,-0.35101 -0.08502,-0.1397 -0.138642,-0.2914 -0.16122,-0.45509 -0.02222,-0.16333 -0.01305,-0.33267 0.02822,-0.50764 0.04092,-0.17498 0.117827,-0.34643 0.230363,-0.51541 0.110067,-0.16546 0.238831,-0.30092 0.385587,-0.40781 0.146755,-0.10725 0.300919,-0.18098 0.462139,-0.2219 0.161572,-0.0413 0.324555,-0.048 0.489302,-0.0215 0.164748,0.0275 0.321734,0.0903 0.4699,0.18944 0.14852,0.0991 0.262467,0.21132 0.341842,0.33796 0.07902,0.12559 0.125942,0.26176 0.140406,0.40817"
         style="fill:#ffffff;fill-opacity:1;fill-rule:nonzero;stroke:none;stroke-width:0.0352778"
         id="path269" />
      <path
         d="m 81.253726,104.9075 -1.072092,-0.62513 -0.971903,0.44733 0.693562,0.40463 1.350433,-0.22683"
         style="fill:#ffffff;fill-opacity:1;fill-rule:nonzero;stroke:none;stroke-width:0.0352778"
         id="path271" />
      <path
         d="m 79.165987,105.07048 -2.169231,3.72039 0.819856,0.47802 2.169231,-3.7204 -0.819856,-0.47801"
         style="fill:#ffffff;fill-opacity:1;fill-rule:nonzero;stroke:none;stroke-width:0.0352778"
         id="path273" />
      <path
         d="m 82.273607,108.24513 c -0.04621,0.0903 -0.1016,0.15663 -0.166159,0.19861 -0.06456,0.0423 -0.134055,0.0663 -0.207433,0.0723 -0.07338,0.006 -0.148872,-0.002 -0.226836,-0.0236 -0.07761,-0.0212 -0.15487,-0.0511 -0.230717,-0.09 l -0.563739,-0.28681 0.463197,-0.91052 0.433917,0.22048 c 0.07937,0.0402 0.160514,0.0875 0.242358,0.14006 0.0822,0.0533 0.150284,0.11394 0.204259,0.18274 0.05397,0.0681 0.08819,0.14358 0.103364,0.22648 0.01482,0.0825 -0.0028,0.17286 -0.05221,0.27023 z m 0.878064,0.44697 c 0.115711,-0.22825 0.173213,-0.43674 0.171802,-0.62618 -0.0018,-0.18945 -0.04551,-0.36195 -0.132644,-0.51788 -0.08678,-0.15522 -0.20955,-0.29633 -0.3683,-0.42298 -0.15875,-0.12559 -0.337609,-0.23989 -0.536222,-0.34079 l -1.425928,-0.72531 -1.952625,3.83823 0.845608,0.43074 0.761294,-1.49649 0.618067,0.31468 c 0.202142,0.10301 0.40005,0.17886 0.592667,0.22966 0.192969,0.0504 0.375708,0.0624 0.548217,0.0363 0.172508,-0.0261 0.333022,-0.0967 0.482952,-0.21167 0.149578,-0.11501 0.281164,-0.28434 0.395112,-0.50835"
         style="fill:#ffffff;fill-opacity:1;fill-rule:nonzero;stroke:none;stroke-width:0.0352778"
         id="path275" />
      <path
         d="m 84.432607,107.81015 -1.727906,3.94476 0.868892,0.38065 1.728258,-3.94441 -0.869244,-0.381"
         style="fill:#ffffff;fill-opacity:1;fill-rule:nonzero;stroke:none;stroke-width:0.0352778"
         id="path277" />
      <path
         d="m 88.707921,111.79337 c -0.06809,0.19085 -0.160161,0.35489 -0.276225,0.49247 -0.116064,0.13724 -0.249767,0.24377 -0.40252,0.32103 -0.1524,0.0769 -0.3175,0.11995 -0.494947,0.12912 -0.178153,0.0102 -0.362655,-0.0194 -0.553508,-0.0878 -0.190853,-0.0684 -0.352072,-0.16263 -0.483306,-0.28258 -0.131586,-0.12029 -0.231775,-0.25858 -0.300567,-0.41486 -0.0695,-0.15628 -0.104775,-0.32385 -0.107597,-0.50342 -0.0025,-0.17956 0.03069,-0.36477 0.09913,-0.55562 0.06703,-0.18733 0.158397,-0.35031 0.275167,-0.48966 0.116416,-0.13899 0.250825,-0.2473 0.403577,-0.32385 0.1524,-0.0769 0.317148,-0.1203 0.4953,-0.12982 0.1778,-0.009 0.362303,0.0198 0.553156,0.0882 0.190853,0.0681 0.352072,0.16299 0.483306,0.28293 0.131586,0.1203 0.231775,0.25859 0.300566,0.41452 0.06914,0.15628 0.104775,0.3249 0.106539,0.50658 0.0018,0.18133 -0.03104,0.36583 -0.09807,0.55281 z m 0.866069,-1.44428 c -0.128411,-0.2547 -0.30868,-0.47977 -0.540102,-0.67451 -0.232128,-0.19508 -0.506237,-0.3496 -0.823031,-0.46249 -0.317147,-0.11359 -0.626886,-0.16863 -0.929922,-0.1651 -0.302684,0.004 -0.584553,0.0635 -0.845609,0.17886 -0.260703,0.11536 -0.49283,0.2854 -0.69603,0.50976 -0.2032,0.22472 -0.362656,0.49954 -0.479073,0.82374 -0.116063,0.32456 -0.166863,0.63782 -0.1524,0.94015 0.01446,0.30269 0.08608,0.58138 0.214489,0.83609 0.128411,0.25505 0.308681,0.48013 0.540456,0.67486 0.231775,0.19473 0.505883,0.3489 0.822678,0.46249 0.316794,0.1136 0.626886,0.16828 0.929569,0.1644 0.303036,-0.003 0.584906,-0.0628 0.845961,-0.17816 0.260703,-0.11571 0.493184,-0.28575 0.696031,-0.51011 0.2032,-0.22437 0.363008,-0.49883 0.479072,-0.82339 0.116064,-0.32455 0.166864,-0.63852 0.1524,-0.9405 -0.01446,-0.30269 -0.08608,-0.58103 -0.214489,-0.83609"
         style="fill:#ffffff;fill-opacity:1;fill-rule:nonzero;stroke:none;stroke-width:0.0352778"
         id="path279" />
      <path
         d="m 96.772774,113.73541 c -0.0448,0.23883 -0.121355,0.43427 -0.230011,0.58526 -0.108656,0.15063 -0.240242,0.26423 -0.394758,0.34043 -0.154517,0.0765 -0.328436,0.11924 -0.522111,0.12876 -0.193675,0.009 -0.398287,-0.007 -0.613481,-0.0466 l -0.484364,-0.0907 0.469194,-2.51142 0.550334,0.10265 c 0.195086,0.0363 0.376767,0.0963 0.545042,0.17957 0.167922,0.0825 0.30868,0.18626 0.421569,0.3108 0.112889,0.12417 0.194028,0.26987 0.243064,0.43815 0.04904,0.16792 0.05433,0.3556 0.01552,0.56303 z m 0.525992,-1.55716 c -0.195439,-0.21167 -0.438856,-0.38453 -0.729545,-0.51682 -0.290689,-0.13265 -0.605366,-0.23107 -0.944386,-0.29422 l -1.399117,-0.26141 -0.79128,4.23334 1.525058,0.28504 c 0.314678,0.0589 0.624064,0.0692 0.928159,0.0311 0.304447,-0.0378 0.582789,-0.12524 0.835025,-0.26141 0.252236,-0.13653 0.467783,-0.32315 0.646289,-0.55986 0.178152,-0.23707 0.299508,-0.52705 0.363361,-0.8696 0.07232,-0.387 0.06703,-0.72848 -0.01588,-1.02447 -0.0829,-0.29562 -0.221897,-0.54962 -0.417689,-0.76164"
         style="fill:#ffffff;fill-opacity:1;fill-rule:nonzero;stroke:none;stroke-width:0.0352778"
         id="path281" />
      <path
         d="m 98.474574,116.2045 3.019776,0.30727 0.0885,-0.87136 -2.075745,-0.21132 0.0889,-0.87136 1.857725,0.18909 0.0889,-0.87136 -1.858078,-0.18909 0.08114,-0.79904 1.967088,0.20003 0.0885,-0.87137 -2.911124,-0.29598 -0.435681,4.28449"
         style="fill:#ffffff;fill-opacity:1;fill-rule:nonzero;stroke:none;stroke-width:0.0352778"
         id="path283" />
      <path
         d="m 109.47242,112.20682 -0.84666,2.85962 -0.012,7e-4 -1.13982,-2.75378 -1.43334,0.0765 0.22895,4.30037 0.94756,-0.0504 -0.17533,-3.29847 0.012,-3.6e-4 1.26294,3.24062 0.72284,-0.0388 0.95427,-3.35844 0.012,-7.1e-4 0.17569,3.29848 0.94756,-0.0508 -0.22931,-4.30001 -1.42734,0.0755"
         style="fill:#ffffff;fill-opacity:1;fill-rule:nonzero;stroke:none;stroke-width:0.0352778"
         id="path285" />
      <path
         d="m 115.56454,114.16298 c -0.036,0.17603 -0.1016,0.33443 -0.19826,0.47519 -0.0967,0.14076 -0.22084,0.25788 -0.37183,0.35207 -0.15134,0.0942 -0.32702,0.15699 -0.5274,0.18874 -0.20038,0.0321 -0.38664,0.0272 -0.56021,-0.0152 -0.17321,-0.0423 -0.32703,-0.11501 -0.46285,-0.21837 -0.13581,-0.10372 -0.24765,-0.23354 -0.33655,-0.38982 -0.0885,-0.15628 -0.14887,-0.33479 -0.18097,-0.53481 -0.031,-0.19615 -0.0293,-0.38347 0.006,-0.56163 0.0349,-0.17815 0.10089,-0.33725 0.19755,-0.47801 0.0967,-0.14076 0.22049,-0.25823 0.37183,-0.35207 0.15134,-0.0942 0.32703,-0.15699 0.52705,-0.18874 0.20073,-0.0321 0.387,-0.0272 0.56021,0.0148 0.17322,0.0423 0.32738,0.11536 0.46355,0.21872 0.13512,0.10407 0.24765,0.23495 0.3369,0.39299 0.0885,0.15805 0.14888,0.3355 0.17992,0.53164 0.0321,0.20038 0.0303,0.38841 -0.005,0.56445 z m 0.65899,-1.61784 c -0.15804,-0.25788 -0.35489,-0.46743 -0.5902,-0.62936 -0.2353,-0.16157 -0.50165,-0.27164 -0.79869,-0.33126 -0.29668,-0.0593 -0.61136,-0.0624 -0.94368,-0.01 -0.33231,0.0533 -0.63076,0.15451 -0.89429,0.30339 -0.26352,0.14887 -0.48189,0.33655 -0.65511,0.56338 -0.17321,0.22684 -0.29457,0.48754 -0.36442,0.78211 -0.0699,0.29457 -0.078,0.61242 -0.0236,0.95215 0.0543,0.34043 0.16051,0.63994 0.31926,0.89782 0.15805,0.25858 0.3549,0.46778 0.59055,0.62971 0.23495,0.16157 0.50095,0.27199 0.79799,0.33125 0.29703,0.0593 0.61171,0.0628 0.94403,0.009 0.33196,-0.0529 0.63041,-0.15381 0.89394,-0.30269 0.26352,-0.14887 0.48189,-0.3369 0.65546,-0.56374 0.17321,-0.22683 0.29457,-0.48753 0.36442,-0.78246 0.0702,-0.29421 0.078,-0.61171 0.0233,-0.9525 -0.054,-0.34007 -0.16051,-0.63923 -0.31891,-0.89746"
         style="fill:#ffffff;fill-opacity:1;fill-rule:nonzero;stroke:none;stroke-width:0.0352778"
         id="path287" />
      <path
         d="m 120.07093,112.81395 c -0.13053,-0.12241 -0.27835,-0.20884 -0.44345,-0.25964 -0.1651,-0.0512 -0.33655,-0.0797 -0.51364,-0.0854 -0.17674,-0.006 -0.3429,-0.0152 -0.49848,-0.0268 -0.15522,-0.0113 -0.28857,-0.0392 -0.39969,-0.0826 -0.11113,-0.043 -0.18204,-0.12806 -0.21343,-0.254 -0.0198,-0.0787 -0.0166,-0.15029 0.009,-0.21555 0.0258,-0.0649 0.066,-0.12171 0.1203,-0.17075 0.0547,-0.049 0.11535,-0.0903 0.18273,-0.12347 0.067,-0.0335 0.13406,-0.0586 0.20074,-0.0751 0.11394,-0.0286 0.24059,-0.036 0.37994,-0.0222 0.13934,0.0138 0.25788,0.0582 0.3563,0.13371 l 0.46003,-0.84773 c -0.21661,-0.11289 -0.44309,-0.17603 -0.68016,-0.18838 -0.23707,-0.012 -0.47343,0.0113 -0.70979,0.0702 -0.20461,0.0508 -0.39652,0.12841 -0.57503,0.23354 -0.17886,0.10478 -0.32738,0.23283 -0.44661,0.38347 -0.11924,0.15099 -0.2025,0.32209 -0.24836,0.51329 -0.0469,0.19121 -0.0423,0.39899 0.0138,0.62336 0.0575,0.23248 0.15205,0.40711 0.28363,0.52458 0.13159,0.11818 0.28081,0.20214 0.44838,0.25224 0.16651,0.0508 0.34149,0.0808 0.52352,0.0896 0.18204,0.009 0.35172,0.0212 0.51012,0.036 0.1584,0.0152 0.29457,0.0469 0.40958,0.096 0.1143,0.049 0.18732,0.13617 0.21872,0.26212 0.0183,0.0748 0.0159,0.14428 -0.008,0.20884 -0.0236,0.0646 -0.0617,0.12206 -0.11395,0.17216 -0.0522,0.0512 -0.1143,0.0949 -0.18662,0.13123 -0.0727,0.037 -0.14605,0.0646 -0.22084,0.0832 -0.15381,0.0381 -0.3108,0.0406 -0.47131,0.007 -0.16087,-0.0335 -0.30374,-0.10089 -0.43004,-0.2039 l -0.4766,0.88335 c 0.2473,0.13512 0.49671,0.21484 0.74965,0.24024 0.25259,0.0247 0.51471,0.004 0.78635,-0.0639 0.21625,-0.054 0.41522,-0.13264 0.59619,-0.23601 0.18133,-0.10371 0.33161,-0.23071 0.45085,-0.38135 0.11924,-0.15099 0.20073,-0.3235 0.24412,-0.51858 0.0434,-0.19438 0.0367,-0.40781 -0.0208,-0.64029 -0.061,-0.24413 -0.15663,-0.42687 -0.28751,-0.54893"
         style="fill:#ffffff;fill-opacity:1;fill-rule:nonzero;stroke:none;stroke-width:0.0352778"
         id="path289" />
      <path
         d="m 123.68901,111.68048 c -0.13899,-0.11254 -0.29245,-0.18874 -0.46108,-0.2279 -0.16792,-0.0388 -0.34078,-0.0557 -0.51752,-0.049 -0.1771,0.006 -0.34396,0.009 -0.49953,0.008 -0.15628,-3.5e-4 -0.29069,-0.018 -0.40464,-0.0536 -0.11395,-0.0353 -0.19085,-0.11501 -0.23072,-0.23848 -0.025,-0.0769 -0.0272,-0.14922 -0.006,-0.21555 0.0215,-0.0663 0.0572,-0.12594 0.10831,-0.17921 0.0508,-0.0526 0.109,-0.0977 0.17321,-0.13617 0.0646,-0.0377 0.12912,-0.0674 0.19509,-0.0885 0.11183,-0.0367 0.23777,-0.0526 0.37747,-0.049 0.14005,0.004 0.26141,0.0399 0.36442,0.1083 l 0.39934,-0.87771 c -0.22366,-0.0977 -0.45402,-0.14464 -0.69144,-0.14005 -0.23742,0.005 -0.47167,0.0448 -0.70309,0.11959 -0.20038,0.0649 -0.38629,0.15628 -0.55703,0.2734 -0.17075,0.11783 -0.31045,0.25576 -0.41875,0.41451 -0.10795,0.15875 -0.17851,0.33514 -0.21167,0.52917 -0.0328,0.19403 -0.0138,0.40076 0.0575,0.62089 0.0741,0.22754 0.18063,0.39546 0.31997,0.50341 0.14006,0.10831 0.29457,0.18168 0.46496,0.22014 0.1704,0.0388 0.34643,0.0557 0.52882,0.0526 0.18203,-0.004 0.35278,-0.004 0.51188,0 0.1584,0.004 0.29704,0.0261 0.41451,0.0667 0.11748,0.0406 0.1965,0.12241 0.23672,0.24588 0.024,0.073 0.0261,0.14323 0.007,0.20885 -0.019,0.066 -0.0526,0.12594 -0.10124,0.18027 -0.049,0.054 -0.1076,0.10195 -0.17745,0.14358 -0.0692,0.0416 -0.14111,0.0748 -0.21414,0.0984 -0.15028,0.0487 -0.30691,0.0624 -0.4699,0.0409 -0.16263,-0.0222 -0.31009,-0.0797 -0.44273,-0.17286 l -0.41311,0.91405 c 0.25577,0.11748 0.51012,0.17956 0.76412,0.18697 0.25365,0.007 0.514,-0.0324 0.77999,-0.11888 0.21202,-0.0692 0.40499,-0.16122 0.5782,-0.27729 0.17357,-0.11641 0.31433,-0.25329 0.42263,-0.41239 0.1083,-0.15875 0.17745,-0.33655 0.20708,-0.53411 0.0296,-0.19756 0.008,-0.40957 -0.066,-0.63747 -0.078,-0.23883 -0.18591,-0.41451 -0.32491,-0.5274"
         style="fill:#ffffff;fill-opacity:1;fill-rule:nonzero;stroke:none;stroke-width:0.0352778"
         id="path291" />
      <path
         d="m 127.90506,110.80665 c -0.0603,0.15981 -0.1524,0.30303 -0.27728,0.43039 -0.12418,0.1277 -0.28011,0.23071 -0.46673,0.30903 -0.18697,0.079 -0.36935,0.11853 -0.54751,0.11889 -0.17815,3.5e-4 -0.34537,-0.0332 -0.502,-0.10196 -0.15663,-0.0681 -0.29633,-0.16757 -0.41945,-0.29845 -0.12383,-0.13052 -0.22437,-0.28927 -0.30339,-0.47589 -0.0769,-0.18345 -0.11995,-0.36548 -0.12841,-0.54716 -0.008,-0.18133 0.018,-0.35172 0.0787,-0.51118 0.06,-0.15981 0.1524,-0.30339 0.27693,-0.43074 0.12417,-0.12735 0.28046,-0.23001 0.46707,-0.30903 0.18662,-0.0787 0.36936,-0.11854 0.54752,-0.11889 0.17815,-3.5e-4 0.34537,0.0339 0.50165,0.10195 0.15663,0.0684 0.29703,0.16898 0.42086,0.30128 0.12418,0.13264 0.22507,0.29069 0.30198,0.47342 0.0787,0.18698 0.12171,0.37007 0.12947,0.54963 0.007,0.17957 -0.0191,0.3489 -0.0794,0.50871 z m 0.33408,-2.23697 c -0.21519,-0.21307 -0.45649,-0.36971 -0.72284,-0.4706 -0.2674,-0.10054 -0.55245,-0.14464 -0.85443,-0.13159 -0.30303,0.0131 -0.60924,0.0854 -0.91934,0.2159 -0.31044,0.13088 -0.57573,0.30022 -0.79622,0.50765 -0.22083,0.20708 -0.3877,0.44203 -0.50165,0.70344 -0.1143,0.26141 -0.17074,0.54363 -0.16827,0.84596 0.002,0.30339 0.0706,0.61313 0.20426,0.93063 0.13405,0.31785 0.30868,0.58314 0.52387,0.79622 0.2152,0.21237 0.45614,0.37006 0.7232,0.47095 0.26705,0.10055 0.55209,0.14429 0.85407,0.13124 0.30304,-0.0134 0.60925,-0.085 0.91969,-0.21625 0.30974,-0.13089 0.57539,-0.29987 0.79587,-0.50695 0.22049,-0.20778 0.3877,-0.44203 0.502,-0.70379 0.1143,-0.26141 0.17004,-0.54363 0.16793,-0.84666 -0.002,-0.30234 -0.0702,-0.61278 -0.20426,-0.93028 -0.13406,-0.31785 -0.30833,-0.58314 -0.52388,-0.79587"
         style="fill:#ffffff;fill-opacity:1;fill-rule:nonzero;stroke:none;stroke-width:0.0352778"
         id="path293" />
      <path
         d="m 131.18801,107.59249 c -0.054,0.0632 -0.12135,0.11959 -0.20249,0.16968 -0.0815,0.0498 -0.16016,0.0953 -0.23495,0.13512 l -0.49424,0.26247 -0.45932,-0.86502 0.54786,-0.29139 c 0.0752,-0.0395 0.15558,-0.0751 0.23989,-0.10619 0.0843,-0.031 0.1651,-0.0473 0.24201,-0.0494 0.0769,-0.002 0.15063,0.0155 0.22048,0.0515 0.0699,0.0363 0.13053,0.10266 0.18168,0.19967 0.0554,0.10407 0.0755,0.1965 0.0614,0.27764 -0.0145,0.0811 -0.0483,0.15346 -0.10231,0.2159 z m 1.06857,-0.15381 c 0.0399,-0.26212 -0.0113,-0.52776 -0.15381,-0.79657 -0.11819,-0.2219 -0.25542,-0.38665 -0.41099,-0.49425 -0.15628,-0.10795 -0.32244,-0.17109 -0.50024,-0.18944 -0.17709,-0.018 -0.36301,0 -0.55668,0.0547 -0.19368,0.0547 -0.38665,0.13335 -0.58032,0.23601 l -1.47214,0.7814 2.02,3.80401 0.8382,-0.44521 -0.80786,-1.52082 0.41381,-0.21943 1.60232,1.09855 1.00506,-0.53375 -1.81998,-1.09291 c 0.24165,-0.19262 0.38276,-0.42016 0.42263,-0.68227"
         style="fill:#ffffff;fill-opacity:1;fill-rule:nonzero;stroke:none;stroke-width:0.0352778"
         id="path295" />
      <path
         d="m 134.29387,102.29729 -1.04034,0.67663 -0.0371,1.06927 0.6731,-0.4378 0.40429,-1.3081"
         style="fill:#ffffff;fill-opacity:1;fill-rule:nonzero;stroke:none;stroke-width:0.0352778"
         id="path297" />
      <path
         d="m 136.43135,106.08436 c -0.0314,0.16757 -0.0967,0.32526 -0.1965,0.47273 -0.10054,0.14746 -0.2353,0.27622 -0.40534,0.38664 -0.17004,0.11077 -0.34255,0.18203 -0.51788,0.21378 -0.17498,0.0318 -0.34572,0.0282 -0.51188,-0.0116 -0.16616,-0.0399 -0.32103,-0.11289 -0.46567,-0.21943 -0.14428,-0.10689 -0.27199,-0.24518 -0.38276,-0.41522 -0.1083,-0.16651 -0.18239,-0.33831 -0.2226,-0.5154 -0.0406,-0.1771 -0.0452,-0.34925 -0.0138,-0.51753 0.0314,-0.16757 0.0967,-0.32526 0.19685,-0.47237 0.10019,-0.14746 0.23495,-0.27622 0.40499,-0.387 0.17004,-0.11077 0.34255,-0.18168 0.51788,-0.21343 0.17533,-0.0318 0.34572,-0.0282 0.51188,0.0113 0.16616,0.0399 0.32173,0.11395 0.46707,0.22225 0.1457,0.10866 0.27305,0.24589 0.38136,0.4124 0.11077,0.17004 0.18556,0.3429 0.22436,0.51788 0.0388,0.17533 0.0434,0.34713 0.012,0.51505 z m 0.58949,-1.57021 c -0.18768,-0.28893 -0.40675,-0.51929 -0.65617,-0.69074 -0.24941,-0.17145 -0.5147,-0.28293 -0.79516,-0.33514 -0.28046,-0.0522 -0.56903,-0.0448 -0.86395,0.0212 -0.29563,0.0667 -0.58455,0.19191 -0.86678,0.37535 -0.28186,0.18345 -0.51329,0.39723 -0.69356,0.63994 -0.18027,0.24307 -0.30374,0.50377 -0.36971,0.78141 -0.0663,0.27798 -0.0709,0.56479 -0.0155,0.86254 0.0557,0.29774 0.1778,0.5909 0.36548,0.87983 0.18768,0.28927 0.40675,0.51964 0.65616,0.69073 0.24942,0.17145 0.51471,0.28328 0.79517,0.3355 0.28045,0.0518 0.56903,0.0448 0.8643,-0.0215 0.29492,-0.0667 0.58385,-0.19156 0.86642,-0.37536 0.28187,-0.18344 0.5133,-0.39687 0.69357,-0.63994 0.18026,-0.24306 0.30374,-0.50376 0.36971,-0.7814 0.0663,-0.27764 0.0713,-0.56515 0.0155,-0.86254 -0.0557,-0.29775 -0.17745,-0.59126 -0.36548,-0.87983"
         style="fill:#ffffff;fill-opacity:1;fill-rule:nonzero;stroke:none;stroke-width:0.0352778"
         id="path299" />
      <path
         d="m 139.99264,99.339252 -0.26599,1.819278 0.78246,0.10407 0.14287,-1.14194 2.17699,2.45956 0.65582,-0.58032 -2.85468,-3.225445 -0.63747,0.564797"
         style="fill:#ffffff;fill-opacity:1;fill-rule:nonzero;stroke:none;stroke-width:0.0352778"
         id="path301" />
      <path
         d="m 145.24056,99.233066 c -0.1277,0.130175 -0.26776,0.197908 -0.4198,0.202142 -0.15134,0.0046 -0.28117,-0.04621 -0.38841,-0.150636 -0.11007,-0.10795 -0.1644,-0.237773 -0.16334,-0.38982 0.001,-0.1524 0.0656,-0.293511 0.19333,-0.423333 0.12805,-0.130528 0.26775,-0.197909 0.41945,-0.202495 0.15205,-0.0042 0.28328,0.04692 0.39299,0.15487 0.10725,0.10548 0.16052,0.233539 0.15911,0.385586 -0.001,0.151694 -0.066,0.293158 -0.19333,0.423686 z m -1.29963,-1.272469 c -0.11077,0.112536 -0.23354,0.17145 -0.3683,0.176036 -0.13476,0.0039 -0.24977,-0.04092 -0.34502,-0.134409 -0.0928,-0.09066 -0.13829,-0.203552 -0.13723,-0.337961 0.002,-0.135114 0.0575,-0.259292 0.16863,-0.37218 0.11007,-0.112889 0.23283,-0.17145 0.36795,-0.176037 0.13441,-0.0042 0.24835,0.03916 0.34078,0.129823 0.096,0.09384 0.14288,0.208139 0.14146,0.3429 -10e-4,0.135114 -0.0575,0.258586 -0.16827,0.371828 z m 2.06375,-0.09948 c -0.19121,-0.186972 -0.39934,-0.294569 -0.62512,-0.322439 -0.22507,-0.02752 -0.45332,0.02716 -0.68404,0.164042 l -0.009,-0.0081 c 0.11254,-0.21343 0.15417,-0.423686 0.12489,-0.631472 -0.0296,-0.207786 -0.12842,-0.3937 -0.29669,-0.558095 -0.14182,-0.139347 -0.29281,-0.233186 -0.45226,-0.281516 -0.15981,-0.04868 -0.31997,-0.06103 -0.4819,-0.0381 -0.16192,0.02328 -0.32138,0.08008 -0.47836,0.170744 -0.15664,0.09031 -0.30445,0.206728 -0.4438,0.348897 -0.13899,0.141464 -0.25188,0.291748 -0.33902,0.45085 -0.0875,0.15875 -0.14181,0.31997 -0.16263,0.482953 -0.0215,0.163689 -0.005,0.324203 0.048,0.481895 0.0533,0.156986 0.15064,0.305152 0.29281,0.443794 0.16792,0.164395 0.35595,0.259645 0.56409,0.284692 0.20814,0.02505 0.41804,-0.02046 0.629,-0.137936 l 0.009,0.0088 c -0.13229,0.233539 -0.18239,0.462492 -0.14993,0.687211 0.0325,0.225073 0.14429,0.431095 0.33549,0.618423 0.14781,0.14464 0.30727,0.24271 0.47801,0.29386 0.17145,0.0515 0.3429,0.0631 0.51471,0.0356 0.1718,-0.0275 0.34043,-0.0882 0.50553,-0.18168 0.16545,-0.0935 0.3175,-0.211313 0.45685,-0.353483 0.13899,-0.141464 0.25329,-0.296333 0.3436,-0.463197 0.09,-0.167569 0.14711,-0.337256 0.1711,-0.510117 0.0236,-0.172155 0.008,-0.3429 -0.0466,-0.513291 -0.0547,-0.169686 -0.15593,-0.327731 -0.30374,-0.47237"
         style="fill:#ffffff;fill-opacity:1;fill-rule:nonzero;stroke:none;stroke-width:0.0352778"
         id="path303" />
      <path
         d="m 148.35171,94.703046 c -0.16651,-0.141816 -0.34114,-0.242005 -0.52282,-0.300214 -0.18203,-0.05856 -0.36265,-0.07726 -0.54186,-0.05715 -0.17957,0.02046 -0.35313,0.07937 -0.52106,0.176389 -0.16756,0.09737 -0.32208,0.229659 -0.46355,0.396523 -0.10477,0.123472 -0.17533,0.231775 -0.21096,0.32385 l -0.49353,-0.443089 1.1056,-1.303514 -0.61242,-0.519289 -1.68381,1.985433 1.78188,1.575506 c 0.055,-0.1397 0.12065,-0.276931 0.19721,-0.410986 0.0769,-0.134409 0.16368,-0.258939 0.2607,-0.372886 0.0762,-0.08996 0.15981,-0.173214 0.25118,-0.249414 0.0921,-0.07655 0.18944,-0.133703 0.29245,-0.171098 0.10336,-0.03704 0.2092,-0.04833 0.31679,-0.03457 0.1076,0.01446 0.21555,0.06738 0.32385,0.159103 0.14217,0.12065 0.2219,0.264583 0.24025,0.431447 0.018,0.166511 -0.0356,0.324203 -0.16193,0.472723 -0.10195,0.12065 -0.22401,0.1905 -0.36442,0.209197 -0.14111,0.0187 -0.27799,-0.01235 -0.41134,-0.09384 l -0.45085,0.86995 c 0.34149,0.167922 0.66358,0.214842 0.9652,0.140758 0.30163,-0.07303 0.57327,-0.252236 0.81492,-0.536928 0.15205,-0.179563 0.26635,-0.367947 0.34396,-0.565502 0.0776,-0.197909 0.11289,-0.394759 0.10689,-0.591609 -0.006,-0.19685 -0.0547,-0.388055 -0.1464,-0.574675 -0.0917,-0.186619 -0.23002,-0.359128 -0.41593,-0.516114"
         style="fill:#ffffff;fill-opacity:1;fill-rule:nonzero;stroke:none;stroke-width:0.0352778"
         id="path305" />
      <path
         d="m 150.11419,93.475732 -0.13512,-1.719791 c -0.0113,-0.108656 -0.0272,-0.213431 -0.0487,-0.314678 -0.0215,-0.101247 -0.0543,-0.198967 -0.0977,-0.293864 -0.0437,-0.0949 -0.1023,-0.18662 -0.17568,-0.27552 -0.073,-0.0889 -0.1651,-0.173919 -0.27623,-0.255058 -0.17356,-0.127353 -0.34642,-0.209903 -0.51964,-0.248356 -0.17286,-0.0388 -0.33937,-0.0388 -0.50024,-0.0011 -0.16122,0.0381 -0.31397,0.109361 -0.45861,0.214489 -0.14499,0.105128 -0.27516,0.236008 -0.39017,0.392995 -0.12418,0.170391 -0.21802,0.344311 -0.28046,0.522463 -0.0621,0.1778 -0.0889,0.353131 -0.0794,0.525639 0.009,0.172862 0.0561,0.340431 0.1404,0.502709 0.0847,0.16263 0.21379,0.314678 0.38629,0.456141 l 0.59338,-0.696383 c -0.11713,-0.100894 -0.19015,-0.220839 -0.21908,-0.360186 -0.0293,-0.138995 0.007,-0.277636 0.1076,-0.41522 0.0836,-0.1143 0.1905,-0.189441 0.31961,-0.225425 0.12947,-0.03598 0.2533,-0.01094 0.37113,0.0755 0.10442,0.07655 0.17145,0.1778 0.19967,0.304094 0.0279,0.126295 0.0476,0.246592 0.06,0.360539 l 0.22366,2.237317 0.78035,0.5715 1.77517,-2.424642 -0.6477,-0.474133 -1.12853,1.540933"
         style="fill:#ffffff;fill-opacity:1;fill-rule:nonzero;stroke:none;stroke-width:0.0352778"
         id="path307" />
      <path
         d="m 152.26155,87.762849 c -0.4438,-0.0053 -0.80892,0.351366 -0.81386,0.795161 -0.005,0.443794 0.35172,0.808567 0.79516,0.813858 0.44379,0.0053 0.80892,-0.351719 0.81421,-0.795161 0.005,-0.443794 -0.35172,-0.808919 -0.79551,-0.813858"
         style="fill:#ffffff;fill-opacity:1;fill-rule:nonzero;stroke:none;stroke-width:0.0352778"
         id="path309" />
      <path
         d="m 60.353758,88.935835 c 0.0049,-0.443795 -0.351719,-0.80892 -0.795514,-0.814211 -0.443442,-0.0049 -0.808567,0.351719 -0.813506,0.795514 -0.0053,0.443794 0.351367,0.808566 0.795162,0.813858 0.443441,0.0049 0.808566,-0.351719 0.813858,-0.795161"
         style="fill:#ffffff;fill-opacity:1;fill-rule:nonzero;stroke:none;stroke-width:0.0352778"
         id="path311" />
    </g>
  </g>
</svg>
